<ttFont>
<head>
    <!-- Most of this table will be recalculated by the compiler -->
    <tableVersion value="1.0"/>
    <fontRevision value="1.0"/>
    <checkSumAdjustment value="0x17218a0d"/>
    <magicNumber value="0x5f0f3cf5"/>
    <flags value="00000000 00000011"/>
    <unitsPerEm value="2048"/>
    <created value="Thu Aug 15 19:02:58 2019"/>
    <modified value="Fri Aug 16 02:19:07 2019"/>
    <xMin value="-595"/>
    <yMin value="-497"/>
    <xMax value="4081"/>
    <yMax value="2088"/>
<macStyle value="00000000 00000000"/>
    <lowestRecPPEM value="3"/>
    <fontDirectionHint value="2"/>
    <indexToLocFormat value="0"/>
    <glyphDataFormat value="0"/>
  </head>
          <CharString index="0">
            -123 -22 vhcurveto
            -110 return
          </CharString>
          <CharString index="1">
            -954 vlineto
            -89 -21 -24 return
          </CharString>
          <CharString index="2">
            rmoveto
            -578 -72 0 -106 return
          </CharString>
          <CharString index="3">
            rmoveto
            70 callsubr
            return
          </CharString>
          <CharString index="4">
            326 -251 210 -373 -372 -260 -224 -325 return
          </CharString>
          <CharString index="5">
            444 -329 303 -484 -90 callgsubr
            vhcurveto
            145 callsubr
            120 callsubr
            endchar
          </CharString>
          <CharString index="6">
            rmoveto
            -22 callsubr
            56 callsubr
            endchar
          </CharString>
          <CharString index="7">
            rmoveto
            181 137 72 113 52 hvcurveto
            return
          </CharString>
          <CharString index="8">
            -776 84 callsubr
            return
          </CharString>
          <CharString index="9">
            45 callsubr
            endchar
          </CharString>
          <CharString index="10">
            rmoveto
            371 261 225 325 return
          </CharString>
          <CharString index="11">
            rmoveto
            -101 -82 -71 -101 -102 82 -71 101 return
          </CharString>
          <CharString index="12">
            172 callsubr
            endchar
          </CharString>
          <CharString index="13">
            -21 -101 -16 vhcurveto
            -110 return
          </CharString>
          <CharString index="14">
            rmoveto
            -32 callsubr
            1296 vlineto
            -45 callsubr
            -27 callsubr
            endchar
          </CharString>
          <CharString index="15">
            1539 rmoveto
            430 313 rlineto
            11 return
          </CharString>
          <CharString index="16">
            -79 callsubr
            endchar
          </CharString>
          <CharString index="17">
            65 callsubr
            endchar
          </CharString>
          <CharString index="18">
            rmoveto
            -654 vlineto
            -380 275 -201 369 382 228 236 361 4 vhcurveto
            7 609 2 110 17 27 114 20 rlinecurve
            111 -448 -111 vlineto
            127 -22 19 -27 2 157 callsubr
            endchar
          </CharString>
          <CharString index="19">
            58 -18 rlineto
            55 -17 9 -18 -68 vvcurveto
            -55 callgsubr
            131 91 114 49 vhcurveto
            -197 vlineto
            return
          </CharString>
          <CharString index="20">
            57 -18 rlineto
            55 -17 -71 callsubr
            return
          </CharString>
          <CharString index="21">
            78 callsubr
            endchar
          </CharString>
          <CharString index="22">
            rmoveto
            -2 callsubr
            return
          </CharString>
          <CharString index="23">
            rmoveto
            954 vlineto
            89 21 24 124 22 vhcurveto
            110 return
          </CharString>
          <CharString index="24">
            43 callsubr
            endchar
          </CharString>
          <CharString index="25">
            -458 vlineto
            -132 -415 rlineto
            return
          </CharString>
          <CharString index="26">
            669 110 vlineto
            -77 14 -14 18 72 vvcurveto
            return
          </CharString>
          <CharString index="27">
            101 82 71 102 101 -82 71 -101 hvcurveto
            endchar
          </CharString>
          <CharString index="28">
            700 -97 callgsubr
            return
          </CharString>
          <CharString index="29">
            -22 -101 -15 vhcurveto
            -110 return
          </CharString>
          <CharString index="30">
            124 21 vhcurveto
            110 -763 -110 vlineto
            112 -19 20 -22 -86 vvcurveto
            return
          </CharString>
          <CharString index="31">
            1159 rmoveto
            450 403 rlineto
            12 return
          </CharString>
          <CharString index="32">
            -72 0 -106 57 -18 rlineto
            55 -17 return
          </CharString>
          <CharString index="33">
            954 vlineto
            92 21 22 return
          </CharString>
          <CharString index="34">
            110 vlineto
            -131 21 -23 31 99 vvcurveto
            return
          </CharString>
          <CharString index="35">
            100 83 71 102 101 -82 71 -101 hvcurveto
            endchar
          </CharString>
          <CharString index="36">
            10 -18 -68 vvcurveto
            -536 vlineto
            -74 -21 return
          </CharString>
          <CharString index="37">
            -457 vlineto
            -111 -324 rlineto
            return
          </CharString>
          <CharString index="38">
            rmoveto
            347 -831 -81 -106 -138 -161 -98 -106 rlinecurve
            -9 378 vlineto
            157 433 146 352 171 422 58 141 24 21 89 19 rlinecurve
            111 -407 -111 vlineto
            113 -12 7 -30 -44 -130 rrcurveto
            -124 -358 -121 359 -43 129 7 30 116 12 rlinecurve
            111 -717 -111 vlineto
            86 -19 20 -22 54 -134 rrcurveto
            endchar
          </CharString>
          <CharString index="39">
            rmoveto
            79 65 56 79 80 -65 55 -79 hvcurveto
            -20 hlineto
            -79 -64 -55 -80 -79 64 -56 79 hvcurveto
            428 hmoveto
            79 64 56 79 80 -64 55 -79 hvcurveto
            -20 hlineto
            -79 -65 -55 -80 -79 65 -56 79 hvcurveto
            return
          </CharString>
          <CharString index="40">
            38 19 53 26 62 hhcurveto
            94 53 -54 -100 hvcurveto
            -477 vlineto
            -72 -15 -18 -76 60 callsubr
            500 vlineto
            221 -141 120 -218 return
          </CharString>
          <CharString index="41">
            rmoveto
            111 89 75 107 107 -89 75 -111 24 callsubr
          </CharString>
          <CharString index="42">
            -578 -73 0 -106 57 -18 rlineto
            55 -18 10 -17 -68 vvcurveto
            return
          </CharString>
          <CharString index="43">
            717 110 vlineto
            -116 18 -23 23 83 vvcurveto
            return
          </CharString>
          <CharString index="44">
            -110 hlineto
            123 -22 21 -24 -89 vvcurveto
            return
          </CharString>
          <CharString index="45">
            -321 0 -217 -323 rlineto
            return
          </CharString>
          <CharString index="46">
            61 47 68 68 -61 47 return
          </CharString>
          <CharString index="47">
            rmoveto
            310 -559 rlineto
            -327 vlineto
            -99 -23 -31 -131 -21 vhcurveto
            -110 795 -73 callsubr
            350 vlineto
            302 544 74 133 27 27 110 19 rlinecurve
            110 -23 callgsubr
            endchar
          </CharString>
          <CharString index="48">
            1539 rmoveto
            240 139 240 -139 138 0 -217 323 return
          </CharString>
          <CharString index="49">
            -996 vlineto
            44 callsubr
            return
          </CharString>
          <CharString index="50">
            28 callsubr
            -110 -90 -75 -107 -107 89 -75 111 hvcurveto
            endchar
          </CharString>
          <CharString index="51">
            1235 rmoveto
            767 223 -767 hlineto
            return
          </CharString>
          <CharString index="52">
            1870 77 callgsubr
            return
          </CharString>
          <CharString index="53">
            -404 -441 403 14 callsubr
            -954 -99 callgsubr
            return
          </CharString>
          <CharString index="54">
            633 1517 rmoveto
            -65 callsubr
            -58 callsubr
            return
          </CharString>
          <CharString index="55">
            -66 callgsubr
            -92 -78 -112 -112 91 -79 113 hvcurveto
            return
          </CharString>
          <CharString index="56">
            79 callsubr
            -71 0 -330 -204 rlineto
            return
          </CharString>
          <CharString index="57">
            1180 rmoveto
            139 98 108 274 return
          </CharString>
          <CharString index="58">
            rmoveto
            713 201 -713 hlineto
            endchar
          </CharString>
          <CharString index="59">
            -458 vlineto
            -111 -324 rlineto
            return
          </CharString>
          <CharString index="60">
            567 vlineto
            -67 callsubr
            return
          </CharString>
          <CharString index="61">
            1159 rmoveto
            140 hlineto
            return
          </CharString>
          <CharString index="62">
            10 480 rlineto
            -106 hlineto
            -68 -280 -63 -54 -245 -11 rrcurveto
            -193 -8 0 545 130 -1 95 -3 30 -39 30 -161 rlinecurve
            100 535 -100 hlineto
            -30 -158 return
          </CharString>
          <CharString index="63">
            1159 rmoveto
            257 186 257 -186 140 0 -239 415 -316 0 -239 -415 rlineto
            return
          </CharString>
          <CharString index="64">
            rmoveto
            -573 -75 callsubr
            -71 callsubr
            -94 callsubr
            -81 callsubr
            567 vlineto
            return
          </CharString>
          <CharString index="65">
            -265 162 -103 199 150 142 57 63 59 vhcurveto
            82 callgsubr
            return
          </CharString>
          <CharString index="66">
            1529 rmoveto
            102 82 71 101 101 -82 70 -102 -101 -83 callgsubr
            return
          </CharString>
          <CharString index="67">
            1899 rmoveto
            189 vlineto
            -752 -192 rlineto
            -87 vlineto
            return
          </CharString>
          <CharString index="68">
            1566 rmoveto
            223 vlineto
            -734 -226 rlineto
            -103 vlineto
            return
          </CharString>
          <CharString index="69">
            763 110 vlineto
            -112 21 -20 23 83 vvcurveto
            return
          </CharString>
          <CharString index="70">
            320 0 218 323 rlineto
            return
          </CharString>
          <CharString index="71">
            rmoveto
            -172 164 -105 188 -22 vhcurveto
            -220 -28 -133 -100 -1 -145 rrcurveto
            -139 141 -90 210 -4 vhcurveto
            -272 -5 -114 -66 -99 vvcurveto
            -133 1 210 -96 381 hhcurveto
            389 258 158 234 1 hvcurveto
            209 -164 133 -325 vhcurveto
            -196 hlineto
            -94 -47 27 45 37 29 25 42 12 hvcurveto
            -3 40 38 -2 42 hhcurveto
            326 232 110 206 88 -57 84 -81 31 hvcurveto
            252 -25 0 160 -377 -29 rlineto
            32 -79 -115 20 -119 hhcurveto
            -332 -218 -143 -205 hvcurveto
            444 16 rmoveto
            119 39 79 79 75 50 -75 -132 -121 -41 -81 -78 -74 -50 78 133 vhcurveto
            -83 -951 rmoveto
            63 46 41 76 7 vhcurveto
            143 hlineto
            117 52 -39 -67 -78 -87 -54 -141 -130 -76 50 77 hvcurveto
            endchar
          </CharString>
          <CharString index="72">
            rmoveto
            229 145 116 195 -7 hvcurveto
            -128 hlineto
            -64 -7 -96 -43 -136 hhcurveto
            -136 -96 43 64 -7 hvcurveto
            -128 hlineto
            -195 -7 145 -116 229 hhcurveto
            return
          </CharString>
          <CharString index="73">
            -224 -127 278 333 358 128 239 223 -20 callgsubr
          </CharString>
          <CharString index="74">
            hvcurveto
            147 callsubr
            407 hmoveto
            75 -61 callsubr
            -75 hvcurveto
            -19 hlineto
            -76 return
          </CharString>
          <CharString index="75">
            -1250 -63 callsubr
            -106 callsubr
            -107 callsubr
            return
          </CharString>
          <CharString index="76">
            1581 rmoveto
            690 195 -690 hlineto
            return
          </CharString>
          <CharString index="77">
            713 1444 -19 callsubr
            return
          </CharString>
          <CharString index="78">
            hvcurveto
            -93 vlineto
            20 8 14 callgsubr
            return
          </CharString>
          <CharString index="79">
            -201 -134 -90 -114 -49 vhcurveto
            return
          </CharString>
          <CharString index="80">
            -29 -41 -96 27 callgsubr
            return
          </CharString>
          <CharString index="81">
            245 -84 callsubr
            return
          </CharString>
          <CharString index="82">
            rmoveto
            -5 -375 rlineto
            105 hlineto
            return
          </CharString>
          <CharString index="83">
            rmoveto
            -444 341 -298 491 230 223 48 80 128 vhcurveto
            404 vlineto
            81 17 26 109 15 vhcurveto
            110 -681 -110 vlineto
            118 -15 19 -25 -80 vvcurveto
            -354 vlineto
            -19 -21 -45 -13 -51 hhcurveto
            -220 -123 275 336 358 124 239 226 172 119 -144 -233 56 hvcurveto
            105 hlineto
            -7 432 rlineto
            62 -94 -184 31 -205 hhcurveto
            -490 -357 -281 -481 hvcurveto
            endchar
          </CharString>
          <CharString index="84">
            rmoveto
            274 -753 311 0 221 621 226 -621 310 0 263 738 53 150 24 22 84 18 rlinecurve
            111 -380 -111 vlineto
            97 -11 9 -31 -41 -138 rrcurveto
            -107 -352 -103 351 208 callsubr
            endchar
          </CharString>
          <CharString index="85">
            -397 1118 -400 0 -398 -1107 -64 -178 -27 -29 -113 -20 rlinecurve
            -110 487 110 vlineto
            -141 23 -24 35 55 168 rrcurveto
            36 110 436 0 37 -112 55 -167 -24 -34 -140 -23 rlinecurve
            -110 return
          </CharString>
          <CharString index="86">
            1464 1415 1444 rmoveto
            -1366 hlineto
            68 callsubr
            -1056 -7 callsubr
            163 callsubr
            return
          </CharString>
          <CharString index="87">
            -19 28 -2 60 callgsubr
            2 111 18 27 115 21 rlinecurve
            110 -450 -111 vlineto
            125 -20 19 -28 2 -115 16 -759 rcurveline
            return
          </CharString>
          <CharString index="88">
            rmoveto
            -672 -110 hlineto
            116 -23 22 -32 -1 -103 rrcurveto
            -8 -907 -1 -111 -19 -27 -116 -21 rlinecurve
            -110 451 111 vlineto
            -126 20 return
          </CharString>
          <CharString index="89">
            1556 rmoveto
            237 124 138 157 23 -2 23 -3 17 hvcurveto
            -126 -1 hlineto
            -86 -97 -56 -133 -131 return
          </CharString>
          <CharString index="90">
            1153 rmoveto
            125 102 88 124 125 -102 87 -125 -125 -101 -87 -125 -124 101 -88 125 hvcurveto
            return
          </CharString>
          <CharString index="91">
            rmoveto
            -461 361 -284 484 194 189 39 67 95 vhcurveto
            8 433 rlineto
            -46 callgsubr
            return
          </CharString>
          <CharString index="92">
            1585 rmoveto
            -258 -187 -257 187 -140 0 return
          </CharString>
          <CharString index="93">
            1899 rmoveto
            752 -90 0 87 -752 192 rlineto
            return
          </CharString>
          <CharString index="94">
            1544 rmoveto
            91 71 callsubr
            391 hmoveto
            91 return
          </CharString>
          <CharString index="95">
            129 103 105 127 127 -103 105 -129 -128 return
          </CharString>
          <CharString index="96">
            9 528 rlineto
            -106 hlineto
            -75 -311 -83 -75 -207 -10 return
          </CharString>
          <CharString index="97">
            rmoveto
            234 149 98 166 -7 hvcurveto
            -130 hlineto
            -54 return
          </CharString>
          <CharString index="98">
            -890 vlineto
            -342 -64 -132 -210 -138 vhcurveto
            return
          </CharString>
          <CharString index="99">
            1585 rmoveto
            -257 -187 -257 187 return
          </CharString>
          <CharString index="100">
            vlineto
            -99 -24 -31 -131 -21 vhcurveto
            -110 return
          </CharString>
          <CharString index="101">
            1168 rmoveto
            80 callgsubr
            return
          </CharString>
          <CharString index="102">
            628 1056 -43 callsubr
            return
          </CharString>
          <CharString index="103">
            -44 14 rlineto
            18 -53 -54 15 -58 hhcurveto
            return
          </CharString>
          <CharString index="104">
            rmoveto
            714 201 -714 hlineto
            endchar
          </CharString>
          <CharString index="105">
            -339 269 -195 329 return
          </CharString>
          <CharString index="106">
            -60 -47 -68 -68 60 -47 76 hvcurveto
            return
          </CharString>
          <CharString index="107">
            -74 -65 -92 -92 74 -65 91 hvcurveto
            return
          </CharString>
          <CharString index="108">
            1780 79 718 rmoveto
            return
          </CharString>
          <CharString index="109">
            1223 64 510 rmoveto
            return
          </CharString>
          <CharString index="110">
            885 156 344 rmoveto
            return
          </CharString>
          <CharString index="111">
            -24 -89 vvcurveto
            -954 vlineto
            -89 return
          </CharString>
          <CharString index="112">
            rmoveto
            900 vlineto
            89 21 24 return
          </CharString>
          <CharString index="113">
            rmoveto
            91 73 65 92 92 -73 return
          </CharString>
          <CharString index="114">
            rmoveto
            342 -1118 384 0 292 966 279 -966 395 0 337 1109 54 177 31 29 111 19 rlinecurve
            110 -478 -110 vlineto
            133 -21 15 -32 -41 -162 rrcurveto
            -189 -736 -199 740 -43 159 10 29 135 23 rlinecurve
            110 -771 -110 vlineto
            129 -21 11 -29 -38 -149 rrcurveto
            -197 -753 -193 734 -42 163 15 32 140 23 rlinecurve
            110 -813 -110 vlineto
            109 -19 31 -30 51 -167 rrcurveto
            endchar
          </CharString>
          <CharString index="115">
            1809 684 237 rmoveto
            431 441 -431 178 callsubr
            return
          </CharString>
          <CharString index="116">
            -122 -5 rcurveline
            1070 vlineto
            90 23 25 131 22 -29 callgsubr
            -954 -99 callgsubr
            vlineto
            return
          </CharString>
          <CharString index="117">
            1163 34 callgsubr
            97 -84 119 hvcurveto
            return
          </CharString>
          <CharString index="118">
            8 480 rlineto
            -106 hlineto
            -66 -285 -71 -48 -263 -12 rrcurveto
            -192 -8 695 165 callsubr
            205 8 -696 -1211 rlineto
            -106 vlineto
            endchar
          </CharString>
          <CharString index="119">
            rmoveto
            238 -3 -195 159 -444 hhcurveto
            -807 -35 callgsubr
            -23 -123 -23 vhcurveto
            -110 -38 callsubr
            152 callsubr
            endchar
          </CharString>
          <CharString index="120">
            -70 callgsubr
            -43 hvcurveto
            91 callsubr
            -138 -99 -108 -275 8 hvcurveto
            128 hlineto
            99 1 24 40 return
          </CharString>
          <CharString index="121">
            vlineto
            84 -86 callgsubr
            -763 84 callsubr
            return
          </CharString>
          <CharString index="122">
            113 91 79 112 112 -91 78 -113 -111 -92 -78 -112 -112 91 -79 112 hvcurveto
            return
          </CharString>
          <CharString index="123">
            rmoveto
            240 167 239 -167 130 0 -222 374 -294 0 -223 -374 rlineto
            endchar
          </CharString>
          <CharString index="124">
            rmoveto
            196 171 65 107 89 hvcurveto
            154 callsubr
            -338 269 -196 325 vhcurveto
            endchar
          </CharString>
          <CharString index="125">
            rmoveto
            422 79 vlineto
            332 -659 rlineto
            539 106 hlineto
            -64 28 193 callsubr
            endchar
          </CharString>
          <CharString index="126">
            1574 rmoveto
            -393 -12 hlineto
            373 -403 rlineto
            159 hlineto
            332 415 rmoveto
            return
          </CharString>
          <CharString index="127">
            1159 rmoveto
            451 403 rlineto
            12 -458 vlineto
            -133 -415 rlineto
            return
          </CharString>
          <CharString index="128">
            1486 605 1056 -105 callsubr
            -88 callsubr
            return
          </CharString>
          <CharString index="129">
            1316 1268 hmoveto
            -11 callsubr
            9 callsubr
            return
          </CharString>
          <CharString index="130">
            1566 rmoveto
            734 -106 0 103 -734 226 rlineto
            return
          </CharString>
          <CharString index="131">
            -111 -90 -75 -107 -107 90 -75 111 hvcurveto
            endchar
          </CharString>
          <CharString index="132">
            763 110 vlineto
            -113 21 -19 23 83 vvcurveto
            return
          </CharString>
          <CharString index="133">
            168 142 69 134 134 -126 66 return
          </CharString>
          <CharString index="134">
            -313 rlineto
            159 hlineto
            326 324 rmoveto
            return
          </CharString>
          <CharString index="135">
            rmoveto
            111 90 75 107 107 -90 75 -111 return
          </CharString>
          <CharString index="136">
            1668 743 111 callsubr
            return
          </CharString>
          <CharString index="137">
            1532 rmoveto
            132 94 99 256 return
          </CharString>
          <CharString index="138">
            -200 -135 -91 -114 -48 vhcurveto
            return
          </CharString>
          <CharString index="139">
            -119 415 rlineto
            -475 -12 hlineto
            return
          </CharString>
          <CharString index="140">
            391 hmoveto
            91 99 callsubr
            return
          </CharString>
          <CharString index="141">
            44 -15 rlineto
            -18 53 54 -15 58 hhcurveto
            return
          </CharString>
          <CharString index="142">
            -99 -255 7 hvcurveto
            127 hlineto
            89 return
          </CharString>
          <CharString index="143">
            1871 42 callsubr
            return
          </CharString>
          <CharString index="144">
            1863 rmoveto
            -392 -11 hlineto
            return
          </CharString>
          <CharString index="145">
            1163 4 callgsubr
            return
          </CharString>
          <CharString index="146">
            -148 hvcurveto
            -2 -3 0 -3 hhcurveto
            return
          </CharString>
          <CharString index="147">
            65 -91 -91 0 callsubr
            return
          </CharString>
          <CharString index="148">
            -17 -37 vvcurveto
            -36 -37 -21 -67 -52 return
          </CharString>
          <CharString index="149">
            rmoveto
            753 155 -753 hlineto
            return
          </CharString>
          <CharString index="150">
            776 -34 callgsubr
            return
          </CharString>
          <CharString index="151">
            -74 -21 -94 callsubr
            return
          </CharString>
          <CharString index="152">
            -113 29 136 -66 144 hhcurveto
            108 92 27 38 52 hvcurveto
            105 vlineto
            -2 -10 -13 -1 -16 hhcurveto
            -49 -40 33 77 hvcurveto
            405 vlineto
            278 -197 120 -343 -336 -191 -133 -154 -100 79 -67 111 113 82 78 102 47 -20 43 -31 30 vhcurveto
            4 20 21 1 22 hhcurveto
            145 77 -67 -164 hvcurveto
            -67 vlineto
            -204 -42 rlineto
            -347 -69 -113 -121 -153 vvcurveto
            -147 116 -107 193 vhcurveto
            131 325 rmoveto
            92 52 61 133 31 vhcurveto
            39 9 rlineto
            -257 vlineto
            -37 -17 -42 -25 -54 hhcurveto
            -62 -49 42 84 hvcurveto
            return
          </CharString>
          <CharString index="153">
            rmoveto
            -119 -172 -44 -32 -124 -21 rrcurveto
            -110 501 110 vlineto
            -132 22 -8 33 95 151 rrcurveto
            146 235 149 -238 91 -149 -8 -31 -133 -23 rlinecurve
            -110 838 110 vlineto
            -102 30 -44 38 -85 137 rrcurveto
            -290 465 225 330 116 172 47 31 124 21 rlinecurve
            110 -497 -110 vlineto
            131 -22 6 -32 -92 -152 rrcurveto
            -137 -224 -141 227 -92 149 7 31 134 23 rlinecurve
            110 -838 -111 vlineto
            102 -29 44 -38 85 -137 283 -455 rcurveline
            endchar
          </CharString>
          <CharString index="154">
            rmoveto
            -379 276 -201 367 364 247 229 367 2 vhcurveto
            6 793 rlineto
            -2 22 23 -2 21 hhcurveto
            167 117 71 129 121 -96 106 -138 55 hvcurveto
            -109 hlineto
            25 -30 18 -61 -1 -59 rrcurveto
            -125 -1 -84 -118 -185 hhcurveto
            -101 -111 hlineto
            139 -25 19 -22 -111 vvcurveto
            6 -598 rlineto
            -242 1 -113 -128 -187 hhcurveto
            -191 -128 120 241 hvcurveto
            633 vlineto
            87 22 20 137 26 vhcurveto
            110 -790 -110 vlineto
            122 -24 23 -22 -87 vvcurveto
            endchar
          </CharString>
          <CharString index="155">
            277 -139 233 -210 120 vhcurveto
            -10 48 50 -5 51 hhcurveto
            168 115 71 133 1 hvcurveto
            2 118 -101 117 -143 56 rrcurveto
            -109 hlineto
            25 -30 18 -62 -1 -57 rrcurveto
            -129 -2 -78 -109 -153 -108 -111 24 -136 -44 callgsubr
            120 callsubr
            endchar
          </CharString>
          <CharString index="156">
            rmoveto
            -706 -110 hlineto
            116 -18 23 -35 -2 -102 rrcurveto
            -23 -911 -4 -113 -18 -26 -115 -19 rlinecurve
            -110 447 111 vlineto
            -118 20 -18 24 -1 114 rrcurveto
            -6 917 359 -1186 283 0 121 457 213 729 20 -947 2 -87 -23 -23 -116 -19 rlinecurve
            -110 763 110 vlineto
            -10 callgsubr
            endchar
          </CharString>
          <CharString index="157">
            rmoveto
            287 -243 151 -434 vhcurveto
            -802 -63 callsubr
            -106 callsubr
            -107 callsubr
            137 callsubr
            279 171 vlineto
            401 276 171 295 hvcurveto
            -510 -19 rmoveto
            -189 -102 -120 -180 -8 vhcurveto
            -56 -3 0 650 56 -2 rlineto
            197 -9 85 -130 -189 vvcurveto
            endchar
          </CharString>
          <CharString index="158">
            1488 63 callsubr
            12 -37 hvcurveto
            -44 15 rlineto
            18 -53 -54 15 -58 hhcurveto
            81 callsubr
            53 1 25 25 50 hhcurveto
            29 33 -9 -12 37 hvcurveto
            34 callsubr
            return
          </CharString>
          <CharString index="159">
            1430 64 506 126 callsubr
            -67 callgsubr
            return
          </CharString>
          <CharString index="160">
            415 vlineto
            33 40 102 23 104 hhcurveto
            74 76 -13 -16 39 hvcurveto
            16 34 12 61 61 vvcurveto
            125 -55 101 -115 -123 -93 -97 -244 -83 vhcurveto
            return
          </CharString>
          <CharString index="161">
            1587 rmoveto
            -148 -109 -65 -69 -53 hvcurveto
            -92 vlineto
            20 30 55 16 55 hhcurveto
            76 47 -28 -53 -48 -32 -47 -111 176 callsubr
            return
          </CharString>
          <CharString index="162">
            rmoveto
            177 123 74 126 124 100 callsubr
            return
          </CharString>
          <CharString index="163">
            824 110 vlineto
            -114 20 -29 30 -59 166 rrcurveto
            -940 259 rmoveto
            173 526 172 -526 rlineto
            return
          </CharString>
          <CharString index="164">
            1159 rmoveto
            258 186 257 -186 140 0 -239 415 -316 0 -240 -415 rlineto
            return
          </CharString>
          <CharString index="165">
            518 vlineto
            251 -12 0 160 -251 -12 rlineto
            288 -100 vlineto
            -466 -332 rlineto
            -104 117 vlineto
            return
          </CharString>
          <CharString index="166">
            101 -16 21 -21 -73 vvcurveto
            -597 vlineto
            44 callsubr
            return
          </CharString>
          <CharString index="167">
            -14 vhcurveto
            -110 669 -97 callgsubr
            return
          </CharString>
          <CharString index="168">
            -57 -84 vhcurveto
            -1 126 vlineto
            3 17 2 22 23 vvcurveto
            157 -124 139 -237 vhcurveto
            return
          </CharString>
          <CharString index="169">
            1529 rmoveto
            101 82 71 101 101 -82 70 -101 -102 -82 -70 -101 -101 82 -71 102 hvcurveto
            return
          </CharString>
          <CharString index="170">
            rmoveto
            142 82 99 167 -2 hvcurveto
            -128 hlineto
            -54 -1 -25 -25 -50 hhcurveto
            -29 -33 9 return
          </CharString>
          <CharString index="171">
            rmoveto
            -588 -72 -39 callgsubr
            -55 callgsubr
            194 callsubr
            endchar
          </CharString>
          <CharString index="172">
            205 176 61 113 91 vhcurveto
            146 callsubr
            204 callsubr
            return
          </CharString>
          <CharString index="173">
            rmoveto
            233 45 204 157 235 vvcurveto
            164 -100 109 -146 return
          </CharString>
          <CharString index="174">
            51 hhcurveto
            32 27 -14 -28 42 hvcurveto
            34 -23 rlineto
            -44 67 57 -21 71 hhcurveto
            return
          </CharString>
          <CharString index="175">
            -9 -435 rlineto
            105 hlineto
            52 237 58 53 199 16 35 2 rcurveline
            return
          </CharString>
          <CharString index="176">
            rmoveto
            145 84 85 141 -2 hvcurveto
            -131 hlineto
            -45 -26 -22 -52 -30 return
          </CharString>
          <CharString index="177">
            -445 327 -303 486 488 322 326 431 return
          </CharString>
          <CharString index="178">
            74 65 92 92 -74 65 -91 -90 -74 -65 -92 -92 73 -65 91 hvcurveto
            return
          </CharString>
          <CharString index="179">
            -88 99 54 rlineto
            361 197 129 155 343 vvcurveto
            endchar
          </CharString>
          <CharString index="180">
            1914 rmoveto
            -237 -124 -139 -157 -23 2 -23 return
          </CharString>
          <CharString index="181">
            1539 rmoveto
            138 hlineto
            -97 323 rlineto
            -474 -10 hlineto
            return
          </CharString>
          <CharString index="182">
            1159 rmoveto
            451 403 rlineto
            12 -82 callsubr
            return
          </CharString>
          <CharString index="183">
            59 192 44 46 172 9 rrcurveto
            114 callsubr
            endchar
          </CharString>
          <CharString index="184">
            -57 16 19 -30 vhcurveto
            -1 -95 rlineto
            -39 47 84 -28 103 hhcurveto
            endchar
          </CharString>
          <CharString index="185">
            573 63 0 105 -58 18 rlineto
            -1 callgsubr
            return
          </CharString>
          <CharString index="186">
            rmoveto
            366 98 366 -98 0 107 -331 204 return
          </CharString>
          <CharString index="187">
            -74 -21 -78 callsubr
            -64 callsubr
            return
          </CharString>
          <CharString index="188">
            -141 -83 -99 -166 2 hvcurveto
            128 hlineto
            return
          </CharString>
          <CharString index="189">
            -34 hvcurveto
            -93 vlineto
            20 8 31 6 30 -1 rrcurveto
            return
          </CharString>
          <CharString index="190">
            -127 -127 103 -105 128 hvcurveto
            endchar
          </CharString>
          <CharString index="191">
            -110 vlineto
            123 -22 21 -24 -89 vvcurveto
            return
          </CharString>
          <CharString index="192">
            rmoveto
            177 124 74 126 124 return
          </CharString>
          <CharString index="193">
            hlineto
            -166 -7 149 -98 234 hhcurveto
            return
          </CharString>
          <CharString index="194">
            -118 415 rlineto
            -476 -12 hlineto
            return
          </CharString>
          <CharString index="195">
            101 82 71 101 101 -82 71 -101 -101 return
          </CharString>
          <CharString index="196">
            98 246 -7 hvcurveto
            -119 hlineto
            -88 return
          </CharString>
          <CharString index="197">
            15 vhcurveto
            111 -669 -111 vlineto
            return
          </CharString>
          <CharString index="198">
            -33 22 rlineto
            44 -67 -58 22 -71 hhcurveto
            return
          </CharString>
          <CharString index="199">
            -37 -139 hhcurveto
            -139 -99 38 53 return
          </CharString>
          <CharString index="200">
            -1183 -97 callsubr
            return
          </CharString>
          <CharString index="201">
            -111 vlineto
            112 -20 20 -23 return
          </CharString>
          <CharString index="202">
            -111 vlineto
            -96 callgsubr
            return
          </CharString>
          <CharString index="203">
            688 -24 -97 callsubr
            return
          </CharString>
          <CharString index="204">
            369 -24 -100 callsubr
            return
          </CharString>
          <CharString index="205">
            321 0 217 323 rlineto
            return
          </CharString>
          <CharString index="206">
            73 65 92 92 -73 65 -91 -91 return
          </CharString>
          <CharString index="207">
            -107 71 -144 -102 -81 -33 -42 return
          </CharString>
          <CharString index="208">
            vhcurveto
            -110 763 110 vlineto
            return
          </CharString>
          <CharString index="209">
            -105 callsubr
            58 -18 rlineto
            return
          </CharString>
          <CharString index="210">
            rmoveto
            734 182 -734 hlineto
            return
          </CharString>
          <CharString index="211">
            rmoveto
            377 301 158 325 226 -130 159 -288 88 hvcurveto
            -137 41 rlineto
            -145 45 -64 57 90 vvcurveto
            97 75 70 144 183 127 -129 -206 45 vhcurveto
            106 hlineto
            -7 384 rlineto
            63 -100 -174 36 -199 hhcurveto
            -425 -250 -191 -289 -222 143 -154 275 -83 hvcurveto
            137 -42 rlineto
            147 -45 62 -61 -96 vvcurveto
            -100 -85 -73 -145 -193 -166 132 239 -51 vhcurveto
            -105 hlineto
            10 -415 rlineto
            -60 112 208 -44 212 hhcurveto
            return
          </CharString>
          <CharString index="212">
            rmoveto
            -224 306 171 218 79 108 44 29 91 13 rlinecurve
            111 -427 -112 vlineto
            96 -17 3 -26 -72 -108 rrcurveto
            -71 -99 -73 101 -74 105 6 28 97 17 rlinecurve
            111 -687 -111 vlineto
            58 -15 33 -23 78 -106 rrcurveto
            225 -306 -165 -198 -94 -119 -41 -31 -102 -20 rlinecurve
            -110 444 110 vlineto
            -89 17 -10 29 73 106 rrcurveto
            70 98 72 -98 73 -105 -10 -29 -92 -18 rlinecurve
            -110 688 110 vlineto
            -59 17 -34 26 -77 101 rrcurveto
            endchar
          </CharString>
          <CharString index="213">
            rmoveto
            -186 138 -98 202 -54 vhcurveto
            104 -26 rlineto
            99 -27 40 -31 -54 vvcurveto
            -60 -57 -39 -110 -181 -96 115 116 -33 vhcurveto
            -106 hlineto
            6 -285 rlineto
            -53 102 162 -36 166 hhcurveto
            355 208 140 227 179 -104 104 -229 60 hvcurveto
            -105 26 rlineto
            -100 27 -45 31 55 vvcurveto
            59 53 35 101 138 85 -78 -117 41 vhcurveto
            106 hlineto
            -4 272 rlineto
            35 -77 -135 31 -167 hhcurveto
            -361 -196 -143 -225 hvcurveto
            return
          </CharString>
          <CharString index="214">
            rmoveto
            -127 -113 -50 -58 -61 hvcurveto
            -104 vlineto
            3 7 17 2 16 hhcurveto
            59 21 -36 -102 hvcurveto
            -76 -5 -140 -81 vvcurveto
            -282 173 -159 307 332 216 258 382 291 -103 155 -169 -154 -87 -149 -187 40 vhcurveto
            166 -18 110 -133 -156 vvcurveto
            -137 -80 -86 -107 -114 -67 87 164 vhcurveto
            72 5 145 78 vvcurveto
            207 -94 110 -188 vhcurveto
            endchar
          </CharString>
          <CharString index="215">
            1661 830 -29 rmoveto
            414 338 339 413 413 -338 339 -414 -413 -338 -339 -413 -413 339 -339 412 hvcurveto
            85 vmoveto
            -360 -297 301 366 366 297 301 360 361 297 -301 -366 -366 -297 -301 -361 hvcurveto
            return
          </CharString>
          <CharString index="216">
            1604 171 1205 rmoveto
            -654 vlineto
            -380 275 -201 369 382 228 236 361 4 vhcurveto
            7 609 2 110 17 27 114 20 rlinecurve
            111 -448 -111 vlineto
            127 -22 19 -27 2 157 callsubr
            return
          </CharString>
          <CharString index="217">
            1371 rmoveto
            -137 145 -91 207 207 145 91 137 136 -145 92 -207 -207 -145 -92 -136 vhcurveto
            261 hmoveto
            73 39 50 52 52 39 -50 -73 -74 -39 -49 -52 -52 -39 50 73 vhcurveto
            return
          </CharString>
          <CharString index="218">
            rmoveto
            456 -343 245 -541 vhcurveto
            -731 -63 callsubr
            -106 callsubr
            -107 callsubr
            -49 callgsubr
            -535 -24 -12 callgsubr
            return
          </CharString>
          <CharString index="219">
            rmoveto
            220 -180 128 -276 16 vhcurveto
            210 13 188 100 186 vvcurveto
            227 -234 122 -409 vhcurveto
            -797 -63 callsubr
            -106 callsubr
            -107 callsubr
            198 callsubr
            endchar
          </CharString>
          <CharString index="220">
            rmoveto
            15 -696 rlineto
            -256 6 128 -111 220 hhcurveto
            164 137 75 96 68 hvcurveto
            105 vlineto
            -20 -36 -46 -10 -49 hhcurveto
            -104 -66 54 131 5 hvcurveto
            25 24 529 4 78 vhcurveto
            endchar
          </CharString>
          <CharString index="221">
            94 4 -483 -816 rlineto
            -99 989 vlineto
            5 391 rlineto
            -107 hlineto
            -47 -203 -57 -55 -169 -7 rrcurveto
            -110 -4 484 817 rlineto
            100 vlineto
            return
          </CharString>
          <CharString index="222">
            246 167 177 245 246 -166 178 -236 -246 -166 -178 -245 -246 165 -177 236 hvcurveto
            return
          </CharString>
          <CharString index="223">
            113 90 79 112 112 -90 78 -113 -112 -91 -78 -112 -112 91 -79 112 hvcurveto
            return
          </CharString>
          <CharString index="224">
            rmoveto
            -577 -75 callsubr
            9 -18 -68 vvcurveto
            -592 vlineto
            -309 -33 12 callgsubr
          </CharString>
          <CharString index="225">
            1880 rmoveto
            752 -90 0 87 -752 193 rlineto
            1 -573 124 callsubr
            return
          </CharString>
          <CharString index="226">
            474 616 33 callgsubr
            -178 -245 -246 165 -177 236 hvcurveto
            return
          </CharString>
          <CharString index="227">
            176 103 -249 -366 -361 -82 -232 -191 -176 -103 249 367 vhcurveto
            return
          </CharString>
          <CharString index="228">
            -67 -42 81 244 245 36 82 65 67 42 -82 -243 -245 -37 -82 -64 hvcurveto
            return
          </CharString>
          <CharString index="229">
            71 14 17 77 90 callsubr
            59 callsubr
            -81 callsubr
            endchar
          </CharString>
          <CharString index="230">
            -32 8 11 -39 vhcurveto
            -44 12 rlineto
            15 -55 37 callgsubr
            33 -8 -10 38 vhcurveto
            return
          </CharString>
          <CharString index="231">
            rmoveto
            375 83 375 -83 0 91 -339 172 -72 0 -339 -172 rlineto
            return
          </CharString>
          <CharString index="232">
            rmoveto
            141 82 99 167 -1 hvcurveto
            -129 hlineto
            -54 -25 -25 -50 -29 -33 9 return
          </CharString>
          <CharString index="233">
            rmoveto
            -331 172 -199 243 164 121 80 120 49 vhcurveto
            return
          </CharString>
          <CharString index="234">
            -8 -99 92 callsubr
            -8 hvcurveto
            -130 86 callsubr
            endchar
          </CharString>
          <CharString index="235">
            2020 rmoveto
            -94 -87 -34 -48 -54 hvcurveto
            -66 vlineto
            14 32 59 13 return
          </CharString>
          <CharString index="236">
            1880 -38 callgsubr
            1 -293 124 callsubr
            return
          </CharString>
          <CharString index="237">
            142 69 134 134 -126 66 -147 hvcurveto
            -3 -3 0 return
          </CharString>
          <CharString index="238">
            -83 vvcurveto
            -1072 -381 1072 vlineto
            83 -86 callgsubr
            return
          </CharString>
          <CharString index="239">
            -13 -25 40 vhcurveto
            31 -20 rlineto
            -40 64 54 -20 67 hhcurveto
            return
          </CharString>
          <CharString index="240">
            -80 hvcurveto
            -19 hlineto
            -79 -65 -55 -80 -79 65 -56 79 hvcurveto
            return
          </CharString>
          <CharString index="241">
            rmoveto
            227 hlineto
            935 1444 rlineto
            -227 hlineto
            return
          </CharString>
          <CharString index="242">
            -354 -12 hlineto
            218 -403 rlineto
            148 hlineto
            return
          </CharString>
          <CharString index="243">
            -351 -11 hlineto
            197 -313 rlineto
            147 hlineto
            return
          </CharString>
          <CharString index="244">
            785 110 vlineto
            -130 21 -24 31 99 vvcurveto
            return
          </CharString>
          <CharString index="245">
            239 -416 316 0 239 416 rlineto
            return
          </CharString>
          <CharString index="246">
            21 callgsubr
            -133 161 -255 vhcurveto
            return
          </CharString>
          <CharString index="247">
            1908 rmoveto
            -129 -95 -55 -58 -46 hvcurveto
            return
          </CharString>
          <CharString index="248">
            1581 rmoveto
            691 195 -691 hlineto
            return
          </CharString>
          <CharString index="249">
            1449 931 hmoveto
            151 callsubr
            return
          </CharString>
          <CharString index="250">
            1159 rmoveto
            265 -42 callgsubr
            return
          </CharString>
          <CharString index="251">
            -142 -82 -99 -166 2 hvcurveto
            128 hlineto
            return
          </CharString>
          <CharString index="252">
            535 16 rmoveto
            360 82 232 191 return
          </CharString>
          <CharString index="253">
            110 vlineto
            -41 -51 -87 -26 -81 hhcurveto
            -197 return
          </CharString>
          <CharString index="254">
            -19 hlineto
            -75 -61 -47 -68 -68 61 -47 75 hvcurveto
            return
          </CharString>
          <CharString index="255">
            rmoveto
            189 159 90 187 38 hvcurveto
            -170 83 190 -107 199 hhcurveto
            200 172 62 108 91 hvcurveto
            110 vlineto
            -38 -49 -89 -25 -78 hhcurveto
            -190 -136 106 204 -42 hvcurveto
            607 hlineto
            4 22 3 39 41 vvcurveto
            278 -191 179 -298 -122 -119 -41 -59 -65 vhcurveto
            62 -60 -119 38 -182 hhcurveto
            -280 -196 -117 -155 -96 75 -69 107 118 88 76 98 43 -18 40 -29 30 hvcurveto
            2 17 18 1 19 hhcurveto
            149 79 -72 -171 hvcurveto
            -59 vlineto
            -215 -36 rlineto
            -318 -52 -132 -115 -168 vvcurveto
            -175 137 -91 186 vhcurveto
            724 671 rmoveto
            173 46 100 83 76 34 -88 -151 -22 0 -16 -1 -14 vhcurveto
            -238 -1 rlineto
            7 0 6 6 vvcurveto
            -512 -468 rmoveto
            -58 -40 43 81 101 65 60 134 25 hvcurveto
            29 4 rlineto
            -128 vlineto
            -135 -57 -51 -73 vhcurveto
            endchar
          </CharString>
          <CharString index="256">
            rmoveto
            -1176 hlineto
            -498 -1078 -95 -208 -49 -31 -101 -17 rlinecurve
            -110 488 110 vlineto
            -128 22 -20 47 78 184 rrcurveto
            81 190 410 0 5 -316 rlineto
            -86 -21 -22 -111 -19 vhcurveto
            -110 1176 vlineto
            10 480 rlineto
            -105 hlineto
            -66 -280 -55 -51 -231 -14 rrcurveto
            -148 -8 -6 545 94 -1 92 -3 29 -39 31 -161 rlinecurve
            100 hlineto
            -6 535 rlineto
            -100 hlineto
            -27 -158 -28 -41 -94 -3 rrcurveto
            -93 -2 -7 518 121 -6 240 -14 52 -50 62 -237 rlinecurve
            106 hlineto
            -1103 306 rmoveto
            72 hlineto
            9 -624 rlineto
            -348 hlineto
            endchar
          </CharString>
          <CharString index="257">
            -120 -84 -116 -46 vhcurveto
            194 vlineto
            -573 -72 0 -106 58 -18 rlineto
            54 -17 10 -18 -68 vvcurveto
            -996 vlineto
            -74 -21 -78 callsubr
            718 -33 callgsubr
            2 callgsubr
            -67 -120 -103 -52 -42 25 33 -14 vhcurveto
            570 vlineto
            39 16 41 28 52 hhcurveto
            102 67 -122 -224 hvcurveto
            endchar
          </CharString>
          <CharString index="258">
            522 106 hlineto
            -58 24 -37 38 -114 229 rrcurveto
            -183 370 135 104 72 34 126 23 rlinecurve
            111 -545 -111 vlineto
            144 -23 1 -50 -115 -105 -178 -170 rcurveline
            -68 937 hlineto
            -65 callsubr
            -58 callsubr
            -81 callsubr
            239 72 vlineto
            return
          </CharString>
          <CharString index="259">
            373 107 vlineto
            269 -610 rlineto
            518 106 hlineto
            -54 20 -36 38 -84 176 rrcurveto
            -170 368 173 56 96 119 -1 164 rlinecurve
            -485 -25 rmoveto
            -176 -121 -100 -152 -7 vhcurveto
            -60 -2 0 580 57 -2 rlineto
            177 -8 99 -112 -173 vvcurveto
            return
          </CharString>
          <CharString index="260">
            37 16 51 27 58 hhcurveto
            79 53 -92 callgsubr
            -76 -14 vhcurveto
            -110 637 110 vlineto
            -76 14 -14 18 72 vvcurveto
            524 vlineto
            16 -1 14 -2 15 vhcurveto
            37 17 50 25 60 hhcurveto
            79 54 -92 callgsubr
            -77 60 callsubr
            -26 callgsubr
            endchar
          </CharString>
          <CharString index="261">
            111 vlineto
            -41 -50 -95 -22 -82 hhcurveto
            -196 -162 135 254 201 103 123 150 19 18 -2 -4 16 hvcurveto
            -60 -30 -40 -64 -74 vvcurveto
            -105 84 -80 108 105 89 78 123 176 -162 135 -281 -342 -272 -209 -343 return
          </CharString>
          <CharString index="262">
            -192 vlineto
            574 63 0 105 -58 18 rlineto
            -56 18 -9 18 67 vvcurveto
            1240 vlineto
            -579 -69 0 -106 58 -18 rlineto
            55 -18 9 -17 -68 vvcurveto
            -269 vlineto
            68 -46 -116 46 -117 hhcurveto
            -254 -210 -193 -363 hvcurveto
            return
          </CharString>
          <CharString index="263">
            1532 rmoveto
            133 94 99 256 -65 callgsubr
            25 -39 hvcurveto
            -47 callgsubr
            35 callsubr
            53 callgsubr
            67 hhcurveto
            return
          </CharString>
          <CharString index="264">
            -114 8 -570 rcurveline
            -266 3 -124 -127 -190 hhcurveto
            -184 -125 123 239 hvcurveto
            630 vlineto
            89 22 24 124 22 vhcurveto
            110 -764 -110 vlineto
            112 -21 20 -23 -85 vvcurveto
            return
          </CharString>
          <CharString index="265">
            45 -13 rlineto
            -15 54 55 -13 60 hhcurveto
            -524 -324 124 callsubr
            return
          </CharString>
          <CharString index="266">
            1908 rmoveto
            -128 -95 -55 -58 -46 hvcurveto
            -78 vlineto
            17 27 49 14 49 hhcurveto
            69 41 -24 -44 -42 -30 -40 -99 -55 hvcurveto
            114 hlineto
            194 60 77 63 83 vvcurveto
            95 -92 64 -130 vhcurveto
            return
          </CharString>
          <CharString index="267">
            -22 -41 -41 -39 -21 -60 -51 -48 14 16 -28 -30 callgsubr
          </CharString>
          <CharString index="268">
            1600 1502 1047 rmoveto
            238 -3 -195 159 -444 hhcurveto
            -807 -35 callgsubr
            -23 -123 -23 vhcurveto
            -110 -38 callsubr
            152 callsubr
            return
          </CharString>
          <CharString index="269">
            1834 rmoveto
            76 61 47 67 69 -61 46 -76 -45 callgsubr
            407 hmoveto
            75 61 47 67 69 -61 46 -75 hvcurveto
            -19 hlineto
            -76 -60 -46 -69 -67 60 -47 76 hvcurveto
            return
          </CharString>
          <CharString index="270">
            796 110 vlineto
            -131 21 -24 31 99 vvcurveto
            1056 229 callsubr
            return
          </CharString>
          <CharString index="271">
            1628 684 237 rmoveto
            422 79 vlineto
            332 -659 rlineto
            539 106 hlineto
            -64 28 193 callsubr
            return
          </CharString>
          <CharString index="272">
            1211 rlineto
            106 -1217 vlineto
            -10 -435 rlineto
            106 hlineto
            59 233 65 56 247 11 rrcurveto
            return
          </CharString>
          <CharString index="273">
            hvcurveto
            494 hmoveto
            104 85 71 100 101 -85 70 -104 -104 -85 -70 -101 -100 84 -71 105 hvcurveto
            endchar
          </CharString>
          <CharString index="274">
            rmoveto
            -67 -42 81 244 244 36 82 65 67 42 -81 -244 -244 -37 -82 -64 hvcurveto
            return
          </CharString>
          <CharString index="275">
            -153 -94 -124 -157 vhcurveto
            111 -3 73 -62 -95 vvcurveto
            -89 -70 -56 -89 -19 vhcurveto
            return
          </CharString>
          <CharString index="276">
            -33 8 11 -38 vhcurveto
            -45 12 rlineto
            15 -54 37 callgsubr
            104 callgsubr
            endchar
          </CharString>
          <CharString index="277">
            1821 rmoveto
            145 84 84 142 -2 hvcurveto
            -131 hlineto
            -46 -26 -21 -52 -30 return
          </CharString>
          <CharString index="278">
            -987 -731 167 callsubr
            1264 -730 rmoveto
            115 callsubr
            return
          </CharString>
          <CharString index="279">
            -326 250 -211 374 hvcurveto
            9 143 rmoveto
            -101 -61 20 callgsubr
            return
          </CharString>
          <CharString index="280">
            3 356 rlineto
            261 123 -259 hlineto
            1 180 -456 -58 rlineto
            -122 return
          </CharString>
          <CharString index="281">
            -483 rmoveto
            167 143 69 134 134 -126 66 -148 hvcurveto
            -3 return
          </CharString>
          <CharString index="282">
            121 -290 vhcurveto
            -220 155 hlineto
            83 23 22 116 18 vhcurveto
            111 return
          </CharString>
          <CharString index="283">
            -65 hvcurveto
            133 hlineto
            222 71 88 73 100 vvcurveto
            113 -106 74 -147 vhcurveto
            return
          </CharString>
          <CharString index="284">
            rmoveto
            239 167 239 -167 131 0 -223 374 -294 0 return
          </CharString>
          <CharString index="285">
            vlineto
            -86 -20 -22 -112 -19 101 callsubr
            -124 21 -21 22 92 vvcurveto
            return
          </CharString>
          <CharString index="286">
            62 105 vvcurveto
            102 -99 69 -146 vhcurveto
            -646 -644 -51 callsubr
            return
          </CharString>
          <CharString index="287">
            1159 rmoveto
            265 403 rlineto
            12 -378 vlineto
            -42 -415 rlineto
            return
          </CharString>
          <CharString index="288">
            -139 -98 -108 -275 8 hvcurveto
            128 hlineto
            99 24 40 51 32 return
          </CharString>
          <CharString index="289">
            102 82 71 101 101 -82 71 -102 -101 -82 -71 -101 -101 82 -71 101 hvcurveto
            return
          </CharString>
          <CharString index="290">
            rmoveto
            368 259 225 323 147 -51 124 -90 91 hvcurveto
            100 94 -85 90 -113 -107 rlineto
            62 -101 -130 34 -149 hhcurveto
            -367 -259 -223 -324 -149 52 -125 92 -92 hvcurveto
            -93 -88 85 -90 107 102 rlineto
            -61 101 127 -33 147 hhcurveto
            -159 550 rmoveto
            251 52 143 106 69 52 -66 -120 26 vhcurveto
            -303 -288 rlineto
            -1 25 -1 27 28 vvcurveto
            169 -410 rmoveto
            -69 -51 63 116 -27 hvcurveto
            302 287 rlineto
            2 -23 0 -24 -25 vvcurveto
            -252 -52 -142 -105 vhcurveto
            endchar
          </CharString>
          <CharString index="291">
            -212 74 -180 130 -130 vhcurveto
            -129 -132 92 -92 138 141 rlineto
            -92 134 174 -51 200 hhcurveto
            488 322 326 431 212 -75 179 -131 131 hvcurveto
            130 131 -92 92 -138 -141 rlineto
            92 -135 -173 51 -199 -44 callgsubr
            112 83 -101 -168 45 vhcurveto
            -503 -513 rlineto
            -6 59 -4 63 68 vvcurveto
            552 -23 rmoveto
            -361 -82 -232 -191 -112 -83 102 168 -45 vhcurveto
            503 513 rlineto
            7 -59 3 -64 -67 vvcurveto
            endchar
          </CharString>
          <CharString index="292">
            rmoveto
            181 109 105 174 83 hvcurveto
            -186 46 89 -88 151 hhcurveto
            112 102 56 90 65 hvcurveto
            105 vlineto
            -12 -14 -23 -10 -26 hhcurveto
            -65 -58 47 224 -55 hvcurveto
            -9 34 228 523 rlineto
            -398 hlineto
            -14 -69 -18 -75 -20 -77 rrcurveto
            157 -75 -118 89 -202 hhcurveto
            -283 -195 -225 -334 -345 179 -183 228 hvcurveto
            56 569 rmoveto
            231 48 120 77 72 36 -75 -198 28 vhcurveto
            29 -209 rlineto
            -147 -55 -48 -55 -61 hhcurveto
            -81 -45 114 219 hvcurveto
            endchar
          </CharString>
          <CharString index="293">
            rmoveto
            -299 185 -165 228 192 123 114 175 75 vhcurveto
            -165 51 115 -124 211 hhcurveto
            287 195 263 342 305 -113 175 -174 -174 -91 -181 -181 79 hvcurveto
            162 -23 102 -127 -142 vvcurveto
            -110 -65 -66 -92 -123 -77 111 249 vhcurveto
            220 -370 -227 vlineto
            -263 -55 -87 -85 -82 -42 91 166 190 57 187 118 116 vhcurveto
            -71 79 rlineto
            -352 -72 -214 -241 -310 vvcurveto
            endchar
          </CharString>
          <CharString index="294">
            rmoveto
            275 196 105 163 100 hvcurveto
            111 vlineto
            -73 -61 -134 -42 -143 -1 rrcurveto
            -141 -1 -81 36 67 vvcurveto
            71 81 35 153 vhcurveto
            62 hlineto
            -58 247 rlineto
            -46 hlineto
            -153 -63 40 62 65 70 44 145 48 43 -5 -8 37 hvcurveto
            -28 -27 -19 -39 -44 vvcurveto
            -83 56 -64 103 88 66 71 86 132 -139 126 -351 -352 -194 -127 -184 -168 149 -85 229 -6 vhcurveto
            -250 -12 -154 -81 -152 vvcurveto
            -174 198 -97 280 vhcurveto
            endchar
          </CharString>
          <CharString index="295">
            hmoveto
            675 416 hlineto
            -149 64 -72 144 265 vvcurveto
            300 119 139 173 184 116 -157 -302 -259 -78 -127 -143 -69 vhcurveto
            -414 674 vlineto
            53 464 rlineto
            -88 hlineto
            -66 -151 -199 -55 -244 -7 rrcurveto
            82 vlineto
            317 34 259 204 314 vvcurveto
            313 -263 273 -517 -515 -268 -266 -332 -305 260 -217 317 -18 vhcurveto
            -82 vlineto
            -248 7 -196 54 -66 152 rrcurveto
            -89 hlineto
            return
          </CharString>
          <CharString index="296">
            rmoveto
            -113 98 -82 121 174 122 112 269 149 vhcurveto
            447 810 68 126 27 28 112 19 rlinecurve
            110 -468 -110 vlineto
            145 -20 11 -27 -62 -129 rrcurveto
            -217 -438 -230 456 -58 113 7 27 139 18 rlinecurve
            110 -810 -110 vlineto
            107 -19 26 -29 63 -112 rrcurveto
            508 -901 -32 -55 -33 -41 -35 -28 rlinecurve
            4 0 5 4 vvcurveto
            105 -82 88 -107 -109 -81 -87 -103 vhcurveto
            endchar
          </CharString>
          <CharString index="297">
            191 -86 151 -151 84 hvcurveto
            -16 55 62 -8 60 hhcurveto
            159 110 70 126 1 hvcurveto
            2 119 -97 118 -141 55 rrcurveto
            -109 hlineto
            25 -30 17 -61 -59 vvcurveto
            -127 -2 -83 -107 -167 -85 -81 30 -126 hhcurveto
            -373 -246 -234 -315 -327 248 -210 376 hvcurveto
            9 143 rmoveto
            -101 -61 150 260 250 49 141 102 102 60 -150 -260 -252 -49 -139 -102 hvcurveto
            return
          </CharString>
          <CharString index="298">
            rmoveto
            331 -173 199 -243 -164 -121 -79 -120 -49 vhcurveto
            6 651 -578 -71 0 -106 57 -18 rlineto
            55 -18 9 -17 -68 vvcurveto
            -1217 270 vlineto
            125 140 rlineto
            -89 54 121 -74 152 hhcurveto
            261 218 193 363 hvcurveto
            -466 -34 rmoveto
            -235 -68 -113 -101 -52 -43 26 32 -14 vhcurveto
            570 vlineto
            38 16 42 29 53 hhcurveto
            98 69 -116 -231 hvcurveto
            return
          </CharString>
          <CharString index="299">
            470 hlineto
            15 -10 746 -1 vvcurveto
            46 19 47 32 64 hhcurveto
            87 52 -60 -155 -331 -4 -359 -10 -393 hvcurveto
            469 hlineto
            -2 1116 rlineto
            280 -140 126 -228 -202 -130 -102 -123 -44 vhcurveto
            132 -20 -80 90 -161 hhcurveto
            -117 -110 -51 -57 -58 hvcurveto
            -105 vlineto
            4 8 19 2 18 hhcurveto
            69 27 -37 -105 -3 hvcurveto
            -28 -24 -581 -6 -101 vhcurveto
            endchar
          </CharString>
          <CharString index="300">
            -27 36 -124 232 rrcurveto
            -316 607 86 87 178 174 64 37 140 27 rlinecurve
            110 -550 -110 vlineto
            122 -19 20 -36 -98 -118 -303 -367 rcurveline
            -78 412 hlineto
            84 19 23 113 20 vhcurveto
            111 -763 -110 vlineto
            122 -22 22 4 callsubr
            -22 -24 -122 -22 vhcurveto
            -110 25 callsubr
            return
          </CharString>
          <CharString index="301">
            130 91 114 50 vhcurveto
            -197 vlineto
            585 63 0 105 -62 18 rlineto
            -61 19 -11 17 67 vvcurveto
            661 vlineto
            -3 18 20 -1 20 hhcurveto
            137 105 73 129 1 hvcurveto
            2 118 -100 112 -145 54 rrcurveto
            -109 hlineto
            22 -26 19 -54 -64 vvcurveto
            -155 -114 -82 -320 -36 vhcurveto
            -144 -15 -39 callgsubr
            97 callgsubr
            return
          </CharString>
          <CharString index="302">
            rmoveto
            118 102 54 75 43 hvcurveto
            106 vlineto
            -11 -11 -21 -8 -25 hhcurveto
            -72 -57 89 120 13 2 16 3 14 hvcurveto
            324 33 221 215 298 vvcurveto
            -103 callsubr
            -307 221 -204 336 -24 vhcurveto
            -100 -65 -75 -90 -101 vvcurveto
            -120 108 -90 139 vhcurveto
            4 607 rmoveto
            -101 -61 20 callgsubr
            endchar
          </CharString>
          <CharString index="303">
            1569 rmoveto
            223 vlineto
            -734 -226 rlineto
            -102 vlineto
            410 -342 rmoveto
            176 117 66 100 101 -117 66 -176 hvcurveto
            -86 hlineto
            -176 -117 -66 -101 -100 117 -66 176 hvcurveto
            58 97 rmoveto
            -30 hlineto
            -48 -27 28 41 43 27 27 48 hvcurveto
            30 hlineto
            47 28 -27 -43 -41 -28 -28 -47 hvcurveto
            return
          </CharString>
          <CharString index="304">
            rmoveto
            658 vlineto
            243 -12 0 160 -243 -12 rlineto
            198 vlineto
            112 39 50 66 11 vhcurveto
            -17 -23 -11 -29 -33 vvcurveto
            -86 65 -59 83 80 66 59 86 128 -117 99 -231 -281 -193 -153 -303 vhcurveto
            -52 vlineto
            -127 -50 rlineto
            -104 122 -658 vlineto
            80 callsubr
            endchar
          </CharString>
          <CharString index="305">
            797 vlineto
            377 324 150 282 hvcurveto
            -546 628 rmoveto
            -164 -90 -75 -149 -2 vhcurveto
            -82 -1 0 499 52 -2 rlineto
            175 -6 94 -94 -155 vvcurveto
            36 -645 rmoveto
            -181 -114 -98 -191 -7 vhcurveto
            -52 -2 0 564 82 -1 rlineto
            179 -2 96 -111 -162 vvcurveto
            return
          </CharString>
          <CharString index="306">
            388 -1118 401 0 389 1107 63 178 28 29 113 20 rlinecurve
            110 -486 -110 vlineto
            142 -23 20 -35 -53 -168 rrcurveto
            -246 -773 -246 775 -52 167 21 34 140 23 rlinecurve
            110 -824 -110 vlineto
            114 -20 31 -30 57 -166 rrcurveto
            return
          </CharString>
          <CharString index="307">
            288 -753 313 0 285 738 57 150 23 21 88 19 rlinecurve
            111 -401 -111 vlineto
            112 -12 9 -30 -44 -138 rrcurveto
            -124 -377 -123 376 -44 139 10 30 115 12 rlinecurve
            111 -725 -111 vlineto
            87 -19 23 -24 51 -132 rrcurveto
            return
          </CharString>
          <CharString index="308">
            rmoveto
            242 vlineto
            78 -1 213 -455 rlineto
            515 106 hlineto
            -63 23 -35 48 -96 204 rrcurveto
            -182 383 140 126 66 19 116 19 rlinecurve
            111 -504 -111 vlineto
            116 -18 13 -43 -106 -101 -193 -183 rcurveline
            -78 242 hlineto
            122 callsubr
          </CharString>
          <CharString index="309">
            rmoveto
            362 263 222 327 330 -250 207 -367 -362 -264 -221 -328 -329 251 -208 367 hvcurveto
            10 143 rmoveto
            -100 -56 148 262 253 47 138 98 98 57 -148 -263 -253 -48 -137 -96 hvcurveto
            endchar
          </CharString>
          <CharString index="310">
            -419 290 -294 440 -32 vhcurveto
            -97 -55 -74 -94 -101 vvcurveto
            -127 106 -84 142 123 104 54 81 45 vhcurveto
            -1 106 rlineto
            -12 -12 -25 -9 -28 hhcurveto
            -64 -67 71 107 24 3 21 6 18 hvcurveto
            444 33 288 313 408 vvcurveto
            -102 callsubr
          </CharString>
          <CharString index="311">
            -140 105 202 -44 hvcurveto
            620 hlineto
            4 22 4 39 41 vvcurveto
            279 -193 181 -313 -348 -244 -217 -335 vhcurveto
            455 136 rmoveto
            173 49 101 89 79 38 -88 -151 vhcurveto
            -23 -1 -17 -14 vvcurveto
            -253 -1 rlineto
            6 -1 7 7 vvcurveto
            return
          </CharString>
          <CharString index="312">
            1618 1551 432 rmoveto
            220 -180 128 -276 16 vhcurveto
            210 13 188 100 186 vvcurveto
            227 -234 122 -409 vhcurveto
            -797 -63 callsubr
            -106 callsubr
            -107 callsubr
            198 callsubr
            return
          </CharString>
          <CharString index="313">
            1518 456 rmoveto
            277 -243 165 -389 vhcurveto
            -202 285 hlineto
            99 24 31 130 21 -29 callgsubr
            -106 callsubr
            -107 callsubr
            839 vlineto
            395 231 178 278 hvcurveto
            return
          </CharString>
          <CharString index="314">
            1377 -743 rmoveto
            9 480 rlineto
            -106 hlineto
            -67 -285 -71 -48 -262 -12 rrcurveto
            -193 -8 696 165 callsubr
            204 8 -695 -1211 rlineto
            -106 vlineto
            -677 719 -12 callgsubr
            endchar
          </CharString>
          <CharString index="315">
            -40 139 7 32 96 10 rlinecurve
            111 -674 -111 vlineto
            94 -10 9 -32 -40 -138 rrcurveto
            -107 -352 -103 351 -39 138 7 33 97 10 rlinecurve
            111 -701 -111 vlineto
            79 -18 26 -26 48 -131 rrcurveto
            return
          </CharString>
          <CharString index="316">
            rmoveto
            227 158 129 185 186 -151 119 -229 -227 -159 -128 -185 -186 152 -120 229 hvcurveto
            6 93 rmoveto
            -56 -31 79 141 137 26 76 55 55 32 -79 -141 return
          </CharString>
          <CharString index="317">
            -488 rmoveto
            108 113 39 59 49 hvcurveto
            -1 106 rlineto
            -11 -17 -32 -9 -35 hhcurveto
            -58 -48 33 70 78 52 71 138 99 hvcurveto
            -133 hlineto
            -288 -125 -94 -115 -107 vvcurveto
            -123 104 -65 142 vhcurveto
            endchar
          </CharString>
          <CharString index="318">
            382 616 -17 callgsubr
            -101 -140 -50 vhcurveto
            65 -38 rlineto
            70 34 66 36 80 hhcurveto
            81 40 -39 -54 -64 -70 -41 -155 -8 hvcurveto
            -84 vlineto
            2 15 24 2 19 hhcurveto
            104 76 -59 -94 -13 callgsubr
            return
          </CharString>
          <CharString index="319">
            388 vlineto
            118 -2 95 -3 29 -38 30 -161 rlinecurve
            100 535 -100 hlineto
            -30 -159 -28 -41 -96 -3 rrcurveto
            -118 -1 0 541 143 -6 246 -12 57 -51 59 -239 rlinecurve
            106 hlineto
            endchar
          </CharString>
          <CharString index="320">
            rmoveto
            216 -485 vlineto
            160 74 212 98 95 89 1 114 rlinecurve
            130 -107 108 -182 -1 vhcurveto
            -195 -118 -100 -150 -47 hvcurveto
            67 -33 rlineto
            64 28 55 45 78 hhcurveto
            82 48 -44 return
          </CharString>
          <CharString index="321">
            1414 1444 rmoveto
            -1365 hlineto
            -9 -413 rlineto
            105 hlineto
            51 230 69 41 194 11 9 1 rcurveline
            -1053 -7 callsubr
            786 110 vlineto
            -124 21 -21 22 93 vvcurveto
            return
          </CharString>
          <CharString index="322">
            58 192 45 46 171 9 rrcurveto
            95 4 -484 -816 rlineto
            -99 990 vlineto
            4 391 rlineto
            -106 hlineto
            -48 -203 -56 -55 -169 -7 rrcurveto
            -111 -4 485 817 rlineto
            100 vlineto
            endchar
          </CharString>
          <CharString index="323">
            2076 rmoveto
            -375 -80 -375 80 0 -88 339 -167 72 0 339 167 rlineto
            -560 -441 rmoveto
            76 -61 callsubr
            -76 -33 callsubr
            -1 callsubr
            return
          </CharString>
          <CharString index="324">
            499 1468 rmoveto
            -233 -45 -203 -157 -235 vvcurveto
            -164 100 -109 145 154 94 124 157 vhcurveto
            -111 3 -73 62 95 vvcurveto
            89 69 56 89 19 vhcurveto
            return
          </CharString>
          <CharString index="325">
            1393 1310 hmoveto
            8 480 rlineto
            -106 hlineto
            -66 -285 -71 -48 -263 -12 rrcurveto
            -192 -8 695 165 callsubr
            205 8 -696 -1211 rlineto
            -106 vlineto
            return
          </CharString>
          <CharString index="326">
            -305 218 -189 282 -34 vhcurveto
            -112 -121 -91 callgsubr
            -49 14 16 -28 -30 callgsubr
          </CharString>
          <CharString index="327">
            808 vlineto
            284 170 124 203 hvcurveto
            -639 195 rmoveto
            120 -3 60 -77 -116 vvcurveto
            -116 -64 -75 -121 -6 vhcurveto
            -40 -2 rlineto
            395 vlineto
            endchar
          </CharString>
          <CharString index="328">
            25 -4 20 hvcurveto
            -128 -1 hlineto
            -98 -106 -66 -148 -146 -108 67 97 vhcurveto
            1 -128 vlineto
            -4 -20 -2 -25 -28 vvcurveto
            -183 133 -161 255 vhcurveto
            return
          </CharString>
          <CharString index="329">
            rmoveto
            255 142 112 179 -113 490 -253 hlineto
            -379 -514 rlineto
            -155 378 vlineto
            -1 179 rmoveto
            -228 hlineto
            229 332 rlineto
            endchar
          </CharString>
          <CharString index="330">
            -90 -103 -64 -66 -104 -174 173 -121 231 vhcurveto
            return
          </CharString>
          <CharString index="331">
            -94 rlineto
            480 154 239 165 377 vvcurveto
            endchar
          </CharString>
          <CharString index="332">
            vhcurveto
            -11 -146 -12 -146 -12 -146 rrcurveto
            462 hlineto
            return
          </CharString>
          <CharString index="333">
            rmoveto
            241 139 240 -139 81 callgsubr
            return
          </CharString>
          <CharString index="334">
            rmoveto
            129 92 89 callsubr
            -1 -22 -36 -48 hhcurveto
            return
          </CharString>
          <CharString index="335">
            rmoveto
            105 84 71 100 101 -84 70 -105 -104 -85 -70 -101 -100 return
          </CharString>
          <CharString index="336">
            vlineto
            35 -2 201 -16 57 -55 51 -235 rlinecurve
            106 hlineto
            return
          </CharString>
          <CharString index="337">
            hlineto
            -166 -112 -50 -75 -75 112 -49 166 hvcurveto
            return
          </CharString>
        <CharString name=".notdef">
          2048 71 -494 rmoveto
          101 callgsubr
          268 2444 -268 hlineto
          409 -2444 rmoveto
          101 callgsubr
          101 callgsubr
          267 2444 -267 hlineto
          endchar
        </CharString>
        <CharString name=".null">
          0 endchar
        </CharString>
        <CharString name="A">
          1587 1392 326 -101 callsubr
        </CharString>
        <CharString name="AE">
          2002 1902 1444 149 callsubr
        </CharString>
        <CharString name="AEacute">
          2002 1209 -92 callsubr
          -70 callsubr
          831 -95 149 callsubr
        </CharString>
        <CharString name="AEmacron">
          2002 901 -31 callsubr
          1001 -332 149 callsubr
        </CharString>
        <CharString name="Aacute">
          1587 754 -92 callsubr
          -70 callsubr
          776 -1213 -101 callsubr
        </CharString>
        <CharString name="Abreve">
          1587 791 -18 callsubr
          -98 57 85 vhcurveto
          1 -126 -77 callgsubr
          601 -1230 -101 callsubr
        </CharString>
        <CharString name="Abreveacute">
          1587 1167 -40 callsubr
          376 -279 -10 callsubr
          -7 -100 92 callsubr
          -7 hvcurveto
          -131 86 callsubr
          601 -1204 -101 callsubr
        </CharString>
        <CharString name="Abrevecyrillic">
          1587 791 -7 callgsubr
          36 callgsubr
          601 -1217 -101 callsubr
        </CharString>
        <CharString name="Abrevedotbelow">
          1587 791 -18 callsubr
          -98 57 85 vhcurveto
          1 -126 -77 callgsubr
          601 -1230 rmoveto
          -22 callsubr
          56 callsubr
          -93 -698 -96 callsubr
          -80 callsubr
        </CharString>
        <CharString name="Abrevegrave">
          1587 415 -14 callsubr
          376 -558 -10 callsubr
          -7 -100 92 callsubr
          -7 hvcurveto
          -131 86 callsubr
          601 -1204 -101 callsubr
        </CharString>
        <CharString name="Abrevehookabove">
          1587 779 2077 rmoveto
          -98 -92 -34 -48 -56 hvcurveto
          -66 vlineto
          14 34 61 13 52 hhcurveto
          88 41 -14 callgsubr
          -7 -100 92 callsubr
          -7 hvcurveto
          -131 86 callsubr
          601 -1204 -101 callsubr
        </CharString>
        <CharString name="Abrevetilde">
          1587 940 1839 rmoveto
          146 83 85 141 -2 hvcurveto
          -131 hlineto
          -45 -26 -21 -52 -30 109 callgsubr
          45 1 26 22 51 hhcurveto
          30 33 -8 -10 38 hvcurveto
          -95 callgsubr
          -149 -309 -10 callsubr
          -7 -100 92 callsubr
          -7 hvcurveto
          -131 86 callsubr
          601 -1204 -101 callsubr
        </CharString>
        <CharString name="Acaron">
          1587 1051 -55 callsubr
          98 callsubr
          204 -1544 -101 callsubr
        </CharString>
        <CharString name="Acircumflex">
          1587 572 -59 callsubr
          -62 callsubr
          957 -1213 -101 callsubr
        </CharString>
        <CharString name="Acircumflexacute">
          1587 1167 129 callsubr
          976 -1262 -101 callsubr
        </CharString>
        <CharString name="Acircumflexdotbelow">
          1587 572 -59 callsubr
          -62 callsubr
          957 -1213 rmoveto
          -22 callsubr
          56 callsubr
          -93 -698 -96 callsubr
          -80 callsubr
        </CharString>
        <CharString name="Acircumflexgrave">
          1587 415 118 callsubr
          976 -1262 -101 callsubr
        </CharString>
        <CharString name="Acircumflexhookabove">
          1587 1107 128 callsubr
          50 hhcurveto
          84 39 -27 -34 -35 -40 -29 -94 -15 hvcurveto
          93 15 callgsubr
          976 -1262 -101 callsubr
        </CharString>
        <CharString name="Acircumflextilde">
          1587 940 1821 rmoveto
          146 83 84 142 -2 hvcurveto
          -131 hlineto
          -46 -26 -21 -52 -30 109 callgsubr
          46 1 26 21 51 hhcurveto
          30 33 -7 -11 38 hvcurveto
          158 callsubr
          976 -1262 -101 callsubr
        </CharString>
        <CharString name="Acyrillic">
          1587 1392 326 -101 callsubr
        </CharString>
        <CharString name="Adblgrave">
          1587 648 37 callsubr
          352 27 callsubr
          136 callsubr
          306 -1213 -101 callsubr
        </CharString>
        <CharString name="Adieresis">
          1587 596 1544 rmoveto
          91 99 callsubr
          -73 -65 -92 -92 73 -65 91 hvcurveto
          33 callsubr
          0 callsubr
          405 -1218 -101 callsubr
        </CharString>
        <CharString name="Adieresismacron">
          1587 415 36 callsubr
          191 -479 rmoveto
          76 -61 callsubr
          -76 hvcurveto
          -18 hlineto
          -76 -61 -47 -68 -68 61 -47 76 hvcurveto
          406 hmoveto
          75 -61 callsubr
          -75 hvcurveto
          147 callsubr
          417 -1221 -101 callsubr
        </CharString>
        <CharString name="Adotaccent">
          1587 791 55 callgsubr
          82 -71 101 hvcurveto
          601 -1203 -101 callsubr
        </CharString>
        <CharString name="Adotbelow">
          1587 1392 326 rmoveto
          -22 callsubr
          56 callsubr
          -93 -698 -96 callsubr
          -80 callsubr
        </CharString>
        <CharString name="Adotmacron">
          1587 415 1842 42 callsubr
          100 callgsubr
          -66 -52 -76 -74 65 -53 82 hvcurveto
          601 -1208 -101 callsubr
        </CharString>
        <CharString name="Agrave">
          1587 868 74 callsubr
          957 -1526 -101 callsubr
        </CharString>
        <CharString name="Ahookabove">
          1587 839 140 callsubr
          -78 vlineto
          17 27 49 14 50 hhcurveto
          68 41 -24 -44 -42 -30 -40 -98 -55 hvcurveto
          113 hlineto
          195 60 76 63 83 vvcurveto
          95 -92 64 -129 vhcurveto
          553 -1582 -101 callsubr
        </CharString>
        <CharString name="Ainvertedbreve">
          1587 791 73 callsubr
          4 -16 hvcurveto
          126 1 hlineto
          85 96 56 133 131 99 61 callsubr
          601 -1588 -101 callsubr
        </CharString>
        <CharString name="Alphagreek">
          1587 1392 326 -101 callsubr
        </CharString>
        <CharString name="Alphatonosgreek">
          1587 1392 326 rmoveto
          -22 callsubr
          824 110 vlineto
          -114 20 -29 30 -59 166 rrcurveto
          -1196 703 -60 callgsubr
          411 -444 rmoveto
          173 526 172 -526 rlineto
          endchar
        </CharString>
        <CharString name="Amacron">
          1587 446 -31 callsubr
          946 -1450 -101 callsubr
        </CharString>
        <CharString name="Aogonek">
          1587 1188 98 callgsubr
          88 callgsubr
          318 110 hlineto
          -114 20 -29 30 -59 166 rrcurveto
          -22 callsubr
          360 94 callgsubr
          -736 1073 rmoveto
          173 526 172 -526 rlineto
          endchar
        </CharString>
        <CharString name="Aring">
          1587 475 1747 rmoveto
          -124 130 -83 186 102 callgsubr
          -186 -130 -83 -125 vhcurveto
          234 hmoveto
          65 35 44 47 47 36 -44 -65 -65 -36 -43 -47 -47 -35 44 64 vhcurveto
          683 -1421 -101 callsubr
        </CharString>
        <CharString name="Aringacute">
          1587 1167 1882 -38 callgsubr
          418 -271 rmoveto
          166 112 49 75 75 -112 50 -166 hvcurveto
          -83 230 callsubr
          56 72 rmoveto
          -29 hlineto
          -46 -25 20 32 32 25 21 46 hvcurveto
          29 hlineto
          44 27 -21 -32 -32 -27 -20 -44 hvcurveto
          586 -1267 -101 callsubr
        </CharString>
        <CharString name="Aringbelow">
          1587 1392 326 rmoveto
          -22 callsubr
          56 callsubr
          -444 -870 -8 callgsubr
          260 44 callgsubr
        </CharString>
        <CharString name="Atilde">
          1587 936 30 callsubr
          -7 hvcurveto
          -127 hlineto
          -89 -1 -22 -36 -47 hhcurveto
          -30 -24 12 25 -40 hvcurveto
          -47 callgsubr
          35 callsubr
          1 22 36 47 hhcurveto
          30 24 -13 -25 41 hvcurveto
          31 -20 rlineto
          -40 64 53 -20 68 hhcurveto
          456 -1206 -101 callsubr
        </CharString>
        <CharString name="B">
          1618 1551 432 112 callsubr
        </CharString>
        <CharString name="Bdotaccent">
          1618 791 -41 callsubr
          760 -1097 112 callsubr
        </CharString>
        <CharString name="Bdotbelow">
          205 callsubr
          -250 -528 -96 callsubr
          -80 callsubr
        </CharString>
        <CharString name="Becyrillic">
          1580 1518 424 rmoveto
          276 -249 146 -384 vhcurveto
          -202 468 hlineto
          203 -5 255 -7 59 -43 60 -228 rlinecurve
          106 hlineto
          -10 413 rlineto
          -1303 -110 hlineto
          122 -22 21 4 callsubr
          -21 -24 -122 -22 vhcurveto
          -110 837 vlineto
          392 236 155 269 hvcurveto
          -510 -3 rmoveto
          -171 -89 -111 -171 -7 vhcurveto
          -65 -2 0 581 65 -2 rlineto
          164 -7 96 -111 -170 vvcurveto
          endchar
        </CharString>
        <CharString name="Betagreek">
          1618 1551 432 112 callsubr
        </CharString>
        <CharString name="Blinebelow">
          205 callsubr
          -607 -800 -3 callsubr
        </CharString>
        <CharString name="C">
          1487 79 715 -16 callsubr
          -34 callsubr
        </CharString>
        <CharString name="Cacute">
          1487 868 -92 callsubr
          -70 callsubr
          -651 -824 -16 callsubr
          -34 callsubr
        </CharString>
        <CharString name="Ccaron">
          1487 1165 -55 callsubr
          98 callsubr
          -1223 -1155 -16 callsubr
          -34 callsubr
        </CharString>
        <CharString name="Ccedilla">
          1487 79 715 rmoveto
          -427 310 -275 430 -38 vhcurveto
          -105 -114 rlineto
          -82 vlineto
          3 9 19 -101 callgsubr
          -106 callgsubr
          52 88 -27 102 hhcurveto
          167 130 callsubr
          -2 hhcurveto
          52 50 rlineto
          185 4 176 38 91 64 8 433 rcurveline
          -46 callgsubr
          -34 callsubr
        </CharString>
        <CharString name="Ccedillaacute">
          1487 868 -92 callsubr
          -70 callsubr
          -651 -824 rmoveto
          -427 310 -275 430 -38 vhcurveto
          -105 -114 rlineto
          -82 vlineto
          3 9 19 -101 callgsubr
          -106 callgsubr
          52 88 -27 102 hhcurveto
          167 130 callsubr
          -2 hhcurveto
          52 50 rlineto
          185 4 176 38 91 64 8 433 rcurveline
          -46 callgsubr
          -34 callsubr
        </CharString>
        <CharString name="Ccircumflex">
          1487 686 -59 callsubr
          -62 callsubr
          -470 -824 -16 callsubr
          -34 callsubr
        </CharString>
        <CharString name="Cdotaccent">
          1487 905 -41 callsubr
          -826 -814 -16 callsubr
          -34 callsubr
        </CharString>
        <CharString name="Checyrillic">
          1765 1568 -26 callsubr
          -763 -110 vlineto
          112 -19 19 -22 -86 vvcurveto
          -450 vlineto
          -20 -44 -71 -15 -77 hhcurveto
          -152 -87 78 187 hvcurveto
          220 vlineto
          86 21 22 111 19 vhcurveto
          110 -749 -110 vlineto
          111 -19 20 -22 -86 vvcurveto
          -210 vlineto
          -312 211 -147 312 172 143 34 44 79 vhcurveto
          -359 vlineto
          -96 -25 -29 -138 -22 vhcurveto
          -110 795 -34 callgsubr
          endchar
        </CharString>
        <CharString name="Chigreek">
          1545 290 335 46 callsubr
        </CharString>
        <CharString name="D">
          1736 29 callsubr
          endchar
        </CharString>
        <CharString name="Dbar">
          1736 53 678 rmoveto
          144 -433 hlineto
          -89 -21 -24 -107 callsubr
          759 vlineto
          482 374 295 448 456 -343 245 -541 hvcurveto
          -731 -63 callsubr
          -397 -144 vlineto
          1080 -83 rmoveto
          -358 -155 -224 -240 -8 vhcurveto
          -54 -2 rlineto
          551 238 124 -238 515 vlineto
          54 -2 rlineto
          248 -8 147 -240 -348 vvcurveto
          endchar
        </CharString>
        <CharString name="Dcaron">
          1736 1084 -55 callsubr
          98 callsubr
          447 -1127 111 callsubr
          endchar
        </CharString>
        <CharString name="Dcircumflexbelow">
          1736 29 callsubr
          -628 -1191 177 callsubr
          -222 -374 rlineto
          endchar
        </CharString>
        <CharString name="Dcommaaccent">
          1736 29 callsubr
          -419 -1202 55 callsubr
          -33 -29 callsubr
          47 84 -28 103 hhcurveto
          endchar
        </CharString>
        <CharString name="Ddotaccent">
          1736 824 55 callgsubr
          81 -71 102 hvcurveto
          844 -786 111 callsubr
          endchar
        </CharString>
        <CharString name="Ddotbelow">
          1736 29 callsubr
          -389 -832 -96 callsubr
          -80 callsubr
        </CharString>
        <CharString name="Decyrillic">
          1594 1563 135 rmoveto
          -188 1048 hlineto
          99 24 31 131 21 vhcurveto
          110 -1342 -110 vlineto
          149 -18 33 -32 -4 -121 rrcurveto
          -6 -125 -15 -422 -42 -309 -140 -172 rlinecurve
          -144 hlineto
          -10 -480 rlineto
          107 hlineto
          279 63 86 66 262 hhcurveto
          524 hlineto
          274 77 -70 -275 64 hvcurveto
          106 hlineto
          -683 480 rmoveto
          -545 hlineto
          118 187 36 288 15 428 10 271 rcurveline
          366 hlineto
          endchar
        </CharString>
        <CharString name="Deltagreek">
          1462 31 hmoveto
          1400 248 hlineto
          -500 1196 -400 0 -500 -1196 rlineto
          193 60 rmoveto
          344 842 329 -842 rlineto
          endchar
        </CharString>
        <CharString name="Djecyrillic">
          1884 214 callsubr
          379 vlineto
          19 31 51 15 54 hhcurveto
          153 90 -110 -238 -264 -87 -205 -205 -139 hvcurveto
          49 -91 rlineto
          422 121 307 255 365 vvcurveto
          312 -218 179 -310 -148 -127 -37 -40 -62 vhcurveto
          547 93 callgsubr
        </CharString>
        <CharString name="Dlinebelow">
          1736 29 callsubr
          -746 -1104 -3 callsubr
        </CharString>
        <CharString name="Dzecyrillic">
          1397 641 -30 104 callsubr
          endchar
        </CharString>
        <CharString name="Dzhecyrillic">
          1797 1599 1199 rmoveto
          -40 callgsubr
          -110 vlineto
          112 -21 20 -23 -83 vvcurveto
          -1072 -429 1072 vlineto
          83 20 23 112 21 vhcurveto
          110 -763 84 callsubr
          -106 callsubr
          -107 callsubr
          584 vlineto
          128 26 -36 -287 54 hvcurveto
          107 hlineto
          287 54 26 36 128 hhcurveto
          584 110 hlineto
          -88 callgsubr
        </CharString>
        <CharString name="E">
          1410 1303 1444 -93 callsubr
        </CharString>
        <CharString name="Eacute">
          1410 720 -92 callsubr
          -70 callsubr
          721 -95 -93 callsubr
        </CharString>
        <CharString name="Ebreve">
          1410 757 -18 callsubr
          -62 callgsubr
          546 -112 -93 callsubr
        </CharString>
        <CharString name="Ecaron">
          1410 1017 -55 callsubr
          98 callsubr
          149 -426 -93 callsubr
        </CharString>
        <CharString name="Ecedilla">
          1410 712 -483 rmoveto
          26 callsubr
          39 callsubr
          80 76 rlineto
          4 529 vlineto
          -45 callsubr
          -27 callsubr
          -10 435 rlineto
          -32 callsubr
          633 vlineto
          -129 -139 -91 callgsubr
          -48 14 16 -29 -30 callgsubr
        </CharString>
        <CharString name="Ecedillabreve">
          1410 757 -18 callsubr
          -62 callgsubr
          -45 -2039 rmoveto
          26 callsubr
          39 callsubr
          80 76 rlineto
          4 529 vlineto
          -45 callsubr
          -27 callsubr
          -10 435 rlineto
          -32 callsubr
          633 vlineto
          -129 -139 -91 callgsubr
          -48 14 16 -29 -30 callgsubr
        </CharString>
        <CharString name="Ecircumflex">
          1410 538 -59 callsubr
          -62 callsubr
          902 -95 -93 callsubr
        </CharString>
        <CharString name="Ecircumflexacute">
          1410 1133 129 callsubr
          921 -144 -93 callsubr
        </CharString>
        <CharString name="Ecircumflexbelow">
          1410 1303 1444 rmoveto
          -32 callsubr
          1296 vlineto
          -45 callsubr
          -27 callsubr
          -805 -1481 rmoveto
          239 167 240 -167 130 0 -54 callgsubr
        </CharString>
        <CharString name="Ecircumflexdotbelow">
          1410 538 -59 callsubr
          -62 callsubr
          902 -95 rmoveto
          -32 callsubr
          1296 vlineto
          -45 callsubr
          -27 callsubr
          -566 -1122 -96 callsubr
          -80 callsubr
        </CharString>
        <CharString name="Ecircumflexgrave">
          1410 381 118 callsubr
          921 -144 -93 callsubr
        </CharString>
        <CharString name="Ecircumflexhookabove">
          1410 1073 128 callsubr
          50 hhcurveto
          84 -71 callgsubr
          921 -144 -93 callsubr
        </CharString>
        <CharString name="Ecircumflextilde">
          1410 906 170 callsubr
          -78 callgsubr
          -63 callgsubr
          33 -7 -11 38 vhcurveto
          158 callsubr
          921 -144 -93 callsubr
        </CharString>
        <CharString name="Ecyrillic">
          1504 79 715 -16 callsubr
          -209 -125 243 304 -15 hvcurveto
          485 -11 0 161 -485 -11 rlineto
          316 17 125 206 207 hhcurveto
          -20 callgsubr
        </CharString>
        <CharString name="Edblgrave">
          1410 613 37 callsubr
          353 27 callsubr
          136 callsubr
          251 -95 -93 callsubr
        </CharString>
        <CharString name="Edieresis">
          1410 562 1544 6 callsubr
          40 callsubr
          33 callsubr
          0 callsubr
          350 -100 -93 callsubr
        </CharString>
        <CharString name="Edotaccent">
          1410 757 -41 callsubr
          546 -85 -93 callsubr
        </CharString>
        <CharString name="Edotbelow">
          1410 1303 1444 rmoveto
          -32 callsubr
          1296 vlineto
          -45 callsubr
          -27 callsubr
          -566 -1122 -96 callsubr
          -80 callsubr
        </CharString>
        <CharString name="Efcyrillic">
          2185 54 717 rmoveto
          -275 230 -186 584 -13 vhcurveto
          -12 vlineto
          -99 -23 -31 -131 -20 vhcurveto
          -111 758 111 vlineto
          -131 20 -23 31 99 vvcurveto
          12 vlineto
          585 13 228 180 288 vvcurveto
          275 -225 189 -588 13 vhcurveto
          12 vlineto
          99 23 31 131 20 vhcurveto
          111 -758 -111 vlineto
          131 -20 23 -31 -99 vvcurveto
          -12 vlineto
          -591 -13 -223 -182 -289 vvcurveto
          1567 2 rmoveto
          -181 -96 -139 -207 -25 vhcurveto
          697 vlineto
          223 -24 80 -142 -186 vvcurveto
          -1057 4 rmoveto
          182 94 141 210 24 vhcurveto
          -697 vlineto
          -222 24 -82 141 185 vvcurveto
          endchar
        </CharString>
        <CharString name="Egrave">
          1410 834 74 callsubr
          902 -408 -93 callsubr
        </CharString>
        <CharString name="Ehookabove">
          1410 804 159 callsubr
          499 -464 -93 callsubr
        </CharString>
        <CharString name="Einvertedbreve">
          1410 757 73 callsubr
          4 -16 hvcurveto
          125 1 hlineto
          85 97 56 133 131 99 61 callsubr
          546 -470 -93 callsubr
        </CharString>
        <CharString name="Elcyrillic">
          1629 22 callgsubr
          364 -1064 hlineto
          -92 -21 -22 -123 -21 vhcurveto
          -110 774 110 vlineto
          -123 21 -21 22 92 vvcurveto
          -74 callsubr
          123 21 vhcurveto
          110 -1328 -27 callgsubr
          endchar
        </CharString>
        <CharString name="Emacron">
          1410 412 -31 callsubr
          891 -332 -93 callsubr
        </CharString>
        <CharString name="Emacronacute">
          1410 1133 -40 callsubr
          -225 vmoveto
          753 155 -753 hlineto
          922 -295 -93 callsubr
        </CharString>
        <CharString name="Emacrongrave">
          1410 381 -14 callsubr
          -504 vmoveto
          753 155 -753 hlineto
          922 -295 -93 callsubr
        </CharString>
        <CharString name="Emcyrillic">
          1989 760 1444 49 callsubr
        </CharString>
        <CharString name="Encyrillic">
          8 callsubr
          -74 callsubr
          -77 callsubr
          -54 callsubr
          25 callsubr
          endchar
        </CharString>
        <CharString name="Eogonek">
          1410 1087 -488 rmoveto
          123 105 54 81 44 hvcurveto
          -1 106 rlineto
          -12 -12 88 callgsubr
          174 hlineto
          -45 callsubr
          -30 -41 -95 27 callgsubr
          -10 435 rlineto
          -32 callsubr
          976 94 callgsubr
          endchar
        </CharString>
        <CharString name="Epsilongreek">
          1410 1303 1444 -93 callsubr
        </CharString>
        <CharString name="Epsilontonosgreek">
          1851 1744 1444 rmoveto
          -1250 -110 hlineto
          123 -22 22 4 callsubr
          -22 -24 -107 callsubr
          1296 vlineto
          -45 callsubr
          -27 callsubr
          -1594 20 -60 callgsubr
          endchar
        </CharString>
        <CharString name="Ercyrillic">
          1599 1532 1006 50 callsubr
        </CharString>
        <CharString name="Ereversedcyrillic">
          1506 107 71 rmoveto
          -62 97 194 -39 186 hhcurveto
          495 348 302 459 463 -341 280 -501 -205 -176 -39 -60 -94 hvcurveto
          -9 -377 rlineto
          106 hlineto
          229 51 116 99 159 hhcurveto
          204 133 -197 -324 20 hvcurveto
          -488 10 0 -161 489 10 rlineto
          -316 -14 -132 -230 -212 hhcurveto
          -155 -120 89 242 -55 hvcurveto
          -105 hlineto
          endchar
        </CharString>
        <CharString name="Escyrillic">
          1487 79 715 -16 callsubr
          -34 callsubr
        </CharString>
        <CharString name="Etagreek">
          8 callsubr
          -74 callsubr
          -77 callsubr
          -54 callsubr
          25 callsubr
          endchar
        </CharString>
        <CharString name="Etatonosgreek">
          2250 1125 237 rmoveto
          431 441 -431 178 callsubr
          -74 callsubr
          -77 callsubr
          -404 -441 403 vlineto
          84 -86 callgsubr
          -763 -110 vlineto
          123 -22 22 4 callsubr
          -22 -23 -123 -23 vhcurveto
          -110 25 callsubr
          -965 792 -60 callgsubr
          endchar
        </CharString>
        <CharString name="Etilde">
          1410 902 30 callsubr
          -65 callgsubr
          25 -39 hvcurveto
          -47 callgsubr
          35 callsubr
          53 callgsubr
          68 hhcurveto
          401 -88 -93 callsubr
        </CharString>
        <CharString name="Etildebelow">
          1410 1303 1444 rmoveto
          -32 callsubr
          1296 vlineto
          -45 callsubr
          -27 callsubr
          -424 -1463 rmoveto
          129 91 98 246 -6 hvcurveto
          -120 hlineto
          -88 -22 -36 -48 -30 -25 13 25 -39 vhcurveto
          -31 20 rlineto
          40 -63 -54 19 -66 hhcurveto
          -129 -100 callgsubr
          1 22 36 47 hhcurveto
          31 25 -13 -25 39 hvcurveto
          31 -21 rlineto
          -39 62 54 -20 66 hhcurveto
          endchar
        </CharString>
        <CharString name="F">
          1334 1285 1444 rmoveto
          -1232 -63 callsubr
          -106 callsubr
          -107 callsubr
          137 callsubr
          212 callsubr
        </CharString>
        <CharString name="Fdotaccent">
          1334 748 62 callsubr
          537 -85 rmoveto
          -1232 -63 callsubr
          -106 callsubr
          -107 callsubr
          137 callsubr
          212 callsubr
        </CharString>
        <CharString name="G">
          1642 79 712 -24 callsubr
        </CharString>
        <CharString name="Gacute">
          1642 867 -92 callsubr
          -70 callsubr
          -650 -827 -24 callsubr
        </CharString>
        <CharString name="Gammagreek">
          1319 1269 1444 rmoveto
          -1216 -63 callsubr
          -106 callsubr
          -107 callsubr
          785 -73 callsubr
          1056 vlineto
          148 -6 226 -8 58 -44 57 -228 rlinecurve
          106 hlineto
          endchar
        </CharString>
        <CharString name="Gbreve">
          1642 904 -18 callsubr
          -99 57 85 vhcurveto
          1 -125 -77 callgsubr
          -825 -844 -24 callsubr
        </CharString>
        <CharString name="Gcaron">
          1642 1164 -55 callsubr
          98 callsubr
          -1222 -1158 -24 callsubr
        </CharString>
        <CharString name="Gcircumflex">
          1642 685 -59 callsubr
          -62 callsubr
          -469 -827 -24 callsubr
        </CharString>
        <CharString name="Gcommaaccent">
          1642 79 712 rmoveto
          -444 341 -298 491 230 223 48 80 128 vhcurveto
          404 vlineto
          81 17 26 109 15 vhcurveto
          110 -681 -110 vlineto
          118 -15 19 -25 -80 vvcurveto
          -354 vlineto
          -19 -21 -45 -13 -51 hhcurveto
          -220 -123 275 336 358 124 239 226 172 119 -144 -233 56 hvcurveto
          105 hlineto
          -7 432 rlineto
          62 -94 -184 31 -205 hhcurveto
          -490 -357 -281 -481 hvcurveto
          784 -1195 55 callsubr
          -33 -29 callsubr
          46 85 -28 103 hhcurveto
          endchar
        </CharString>
        <CharString name="Gdotaccent">
          1642 904 -41 callsubr
          -825 -817 -24 callsubr
        </CharString>
        <CharString name="Geacutecyrillic">
          1319 630 -92 callsubr
          -48 callsubr
          778 -95 rmoveto
          -1216 -63 callsubr
          -106 callsubr
          -107 callsubr
          785 -73 callsubr
          48 callgsubr
        </CharString>
        <CharString name="Gecyrillic">
          1319 1269 1444 rmoveto
          -1216 -63 callsubr
          -106 callsubr
          -107 callsubr
          785 -73 callsubr
          48 callgsubr
        </CharString>
        <CharString name="Germandbls">
          1740 684 hmoveto
          1317 vlineto
          148 -6 rlineto
          231 -9 94 -96 -125 vvcurveto
          -117 -81 -66 -118 -11 vhcurveto
          -303 vlineto
          201 -46 107 -117 -146 vvcurveto
          -95 -50 -59 -88 -116 -85 130 194 -29 vhcurveto
          -106 -384 hlineto
          -50 70 129 -38 164 hhcurveto
          258 260 133 296 231 -140 190 -211 67 hvcurveto
          180 18 114 93 132 vvcurveto
          184 -193 127 -448 vhcurveto
          -923 -110 hlineto
          123 -20 22 -24 -87 vvcurveto
          -962 vlineto
          -87 -22 -24 -123 -20 vhcurveto
          -110 vlineto
          endchar
        </CharString>
        <CharString name="Geupturncyrillic">
          1290 1241 1309 rmoveto
          9 464 rlineto
          -107 hlineto
          -280 -87 -53 -49 -232 hhcurveto
          -718 -63 callsubr
          -106 callsubr
          -107 callsubr
          785 -73 callsubr
          1048 vlineto
          endchar
        </CharString>
        <CharString name="Gmacron">
          1642 559 -31 callsubr
          -480 -1064 -24 callsubr
        </CharString>
        <CharString name="H">
          8 callsubr
          -74 callsubr
          -77 callsubr
          -54 callsubr
          25 callsubr
          endchar
        </CharString>
        <CharString name="Hacyrillic">
          1545 290 335 46 callsubr
        </CharString>
        <CharString name="Hardsigncyrillic">
          1814 1762 456 rmoveto
          277 -244 165 -388 vhcurveto
          -202 285 hlineto
          1 99 22 31 131 21 rrcurveto
          110 -1033 vlineto
          -9 -413 rlineto
          105 hlineto
          51 230 61 42 181 11 rrcurveto
          4 -1064 hlineto
          -92 -23 -27 -126 -21 vhcurveto
          -110 843 vlineto
          395 231 178 278 hvcurveto
          -510 -4 rmoveto
          -187 -80 -125 -181 -8 vhcurveto
          -63 -2 rlineto
          633 57 vlineto
          160 -2 107 -115 -194 vvcurveto
          endchar
        </CharString>
        <CharString name="Hbar">
          8 callsubr
          754 145 124 -145 76 vlineto
          92 21 22 -77 callsubr
          -84 -441 83 14 callsubr
          -76 -144 -124 144 -754 -99 callgsubr
          25 callsubr
          566 vmoveto
          196 441 -196 vlineto
          endchar
        </CharString>
        <CharString name="Hbrevebelow">
          8 callsubr
          -74 callsubr
          -77 callsubr
          -54 callsubr
          25 callsubr
          220 -710 rmoveto
          -22 callgsubr
          -1 -23 -24 vvcurveto
          -165 123 -145 237 vhcurveto
          endchar
        </CharString>
        <CharString name="Hcaron">
          1809 1164 1870 -61 callgsubr
          -324 321 0 217 324 rlineto
          -617 -1633 rmoveto
          431 441 -431 178 callsubr
          -74 callsubr
          -77 callsubr
          -54 callsubr
          25 callsubr
          endchar
        </CharString>
        <CharString name="Hcedilla">
          1809 391 -483 rmoveto
          167 143 69 134 134 -126 66 -147 hvcurveto
          -4 -4 0 -3 hhcurveto
          82 80 rlineto
          317 110 hlineto
          -113 21 -19 23 83 vvcurveto
          431 441 -431 178 callsubr
          -74 callsubr
          -77 callsubr
          -54 callsubr
          309 vlineto
          -127 -139 1 -82 rlineto
          -93 callgsubr
          -51 -47 14 16 -29 hvcurveto
          -106 vlineto
          -40 51 89 -27 101 hhcurveto
          endchar
        </CharString>
        <CharString name="Hcircumflex">
          1809 685 1538 rmoveto
          240 139 240 -139 138 0 -217 323 -62 callsubr
          136 -1301 rmoveto
          431 441 -431 178 callsubr
          -74 callsubr
          -77 callsubr
          -54 callsubr
          25 callsubr
          endchar
        </CharString>
        <CharString name="Hdieresis">
          1809 709 1543 6 callsubr
          40 callsubr
          33 callsubr
          0 callsubr
          -416 -1306 rmoveto
          431 441 -431 178 callsubr
          -74 callsubr
          -77 callsubr
          -54 callsubr
          25 callsubr
          endchar
        </CharString>
        <CharString name="Hdotaccent">
          1809 904 1528 rmoveto
          102 82 71 101 101 -82 71 -102 -101 -82 callgsubr
          -220 -1291 rmoveto
          431 441 -431 178 callsubr
          -74 callsubr
          -77 callsubr
          -54 callsubr
          25 callsubr
          endchar
        </CharString>
        <CharString name="Hdotbelow">
          8 callsubr
          -74 callsubr
          -77 callsubr
          -54 callsubr
          25 callsubr
          220 -350 -96 callsubr
          -80 callsubr
        </CharString>
        <CharString name="I">
          882 684 -26 callsubr
          -99 callsubr
          -106 callsubr
          -107 callsubr
          -83 callsubr
        </CharString>
        <CharString name="IAcyrillic">
          1592 104 1003 rmoveto
          -176 114 -112 153 -45 vhcurveto
          -178 -332 -89 -167 -32 -42 -61 -23 rlinecurve
          -106 492 vlineto
          308 606 rlineto
          95 -369 hlineto
          -83 -19 -23 -112 -21 101 callsubr
          -123 23 -22 23 89 vvcurveto
          954 vlineto
          89 22 24 123 21 vhcurveto
          111 -832 vlineto
          -420 -182 -191 -250 hvcurveto
          487 21 rmoveto
          179 94 104 160 8 vhcurveto
          61 2 0 -582 -67 1 rlineto
          -138 3 -110 105 180 vvcurveto
          endchar
        </CharString>
        <CharString name="IJ">
          1763 684 -26 callsubr
          -99 callsubr
          -106 callsubr
          -107 callsubr
          43 callsubr
          882 54 5 callsubr
          123 -94 callgsubr
          124 -22 21 -24 -89 vvcurveto
          -9 callsubr
          86 callgsubr
        </CharString>
        <CharString name="IJacute">
          1763 404 -92 callsubr
          -48 callsubr
          1021 hmoveto
          430 313 rlineto
          11 -48 callsubr
          -463 -1294 -84 callsubr
          -99 callsubr
          -106 callsubr
          -107 callsubr
          43 callsubr
          882 54 5 callsubr
          123 -94 callgsubr
          124 -22 21 -24 -89 vvcurveto
          -9 callsubr
          86 callgsubr
        </CharString>
        <CharString name="IUcyrillic">
          2499 684 237 rmoveto
          431 134 vlineto
          -418 24 316 -280 460 hhcurveto
          483 320 325 432 445 -323 302 -478 -451 -309 -283 -388 -39 hvcurveto
          -137 403 hlineto
          84 -86 callgsubr
          -763 84 callsubr
          -106 callsubr
          -107 callsubr
          -38 callsubr
          941 -119 rmoveto
          -173 -100 249 367 361 78 231 184 171 101 -248 -367 -361 -79 -232 -182 hvcurveto
          endchar
        </CharString>
        <CharString name="Iacute">
          882 404 -92 callsubr
          -48 callsubr
          419 -1294 -84 callsubr
          -99 callsubr
          -106 callsubr
          -107 callsubr
          -83 callsubr
        </CharString>
        <CharString name="Ibreve">
          882 441 1556 rmoveto
          236 125 138 157 23 -2 23 -4 17 hvcurveto
          -126 -1 hlineto
          -86 -96 -56 -133 -131 -99 57 85 vhcurveto
          1 -126 vlineto
          -3 -64 callgsubr
          243 -1311 -84 callsubr
          -99 callsubr
          -106 callsubr
          -107 callsubr
          -83 callsubr
        </CharString>
        <CharString name="Icaron">
          882 701 1870 rmoveto
          -240 -138 -240 138 -139 0 218 -323 -37 callsubr
          -154 -1625 -84 callsubr
          -99 callsubr
          -106 callsubr
          -107 callsubr
          -83 callsubr
        </CharString>
        <CharString name="Icircumflex">
          882 221 -50 callgsubr
          81 callgsubr
          599 -1294 -84 callsubr
          -99 callsubr
          -106 callsubr
          -107 callsubr
          -83 callsubr
        </CharString>
        <CharString name="Icyrillic">
          882 684 -26 callsubr
          -99 callsubr
          -106 callsubr
          -107 callsubr
          -83 callsubr
        </CharString>
        <CharString name="Idblgrave">
          882 297 37 callsubr
          352 27 callsubr
          -350 -11 hlineto
          197 -313 rlineto
          147 hlineto
          -52 -1294 -84 callsubr
          -99 callsubr
          -106 callsubr
          -107 callsubr
          -83 callsubr
        </CharString>
        <CharString name="Idieresis">
          882 245 -13 callsubr
          71 callsubr
          48 -1299 -84 callsubr
          -99 callsubr
          -106 callsubr
          -107 callsubr
          -83 callsubr
        </CharString>
        <CharString name="Idieresisacute">
          882 817 -37 callgsubr
          75 -61 callsubr
          -75 -33 callsubr
          -61 -47 -68 -68 61 -47 76 hvcurveto
          59 -1302 -84 callsubr
          -99 callsubr
          -106 callsubr
          -107 callsubr
          -83 callsubr
        </CharString>
        <CharString name="Idotaccent">
          882 441 1529 rmoveto
          102 81 71 101 101 -81 70 -102 -101 -83 callgsubr
          243 -1284 -84 callsubr
          -99 callsubr
          -106 callsubr
          -107 callsubr
          -83 callsubr
        </CharString>
        <CharString name="Idotbelow">
          882 684 -26 callsubr
          -99 callsubr
          -106 callsubr
          -107 callsubr
          43 callsubr
          -236 -358 rmoveto
          -102 -81 -71 -101 -102 81 -71 102 -72 callsubr
        </CharString>
        <CharString name="Iecyrillic">
          1410 1303 1444 -93 callsubr
        </CharString>
        <CharString name="Igrave">
          882 517 1539 rmoveto
          139 hlineto
          -97 323 rlineto
          -474 -10 hlineto
          599 -1607 -84 callsubr
          -99 callsubr
          -106 callsubr
          -107 callsubr
          -83 callsubr
        </CharString>
        <CharString name="Ihookabove">
          882 488 1908 rmoveto
          -129 -94 -55 -58 -47 hvcurveto
          1 -78 rlineto
          17 26 50 14 49 1 callgsubr
          196 -1663 -84 callsubr
          -99 callsubr
          -106 callsubr
          -107 callsubr
          -83 callsubr
        </CharString>
        <CharString name="Iicyrillic">
          1838 684 237 rmoveto
          49 vlineto
          470 671 rlineto
          -720 178 callsubr
          -74 callsubr
          -77 callsubr
          -49 vlineto
          -470 -671 rlineto
          719 14 callsubr
          -106 callsubr
          -107 callsubr
          -38 callsubr
          endchar
        </CharString>
        <CharString name="Iinvertedbreve">
          882 441 73 callsubr
          107 callgsubr
          98 -57 -84 vhcurveto
          -1 126 vlineto
          4 17 2 22 23 vvcurveto
          157 -125 139 -236 vhcurveto
          243 -1669 -84 callsubr
          -99 callsubr
          -106 callsubr
          -107 callsubr
          -83 callsubr
        </CharString>
        <CharString name="Iishortcyrillic">
          1838 919 1543 rmoveto
          -9 callgsubr
          -235 -1306 rmoveto
          49 vlineto
          470 671 rlineto
          -720 178 callsubr
          -74 callsubr
          -77 callsubr
          -49 vlineto
          -470 -671 rlineto
          719 14 callsubr
          -106 callsubr
          -107 callsubr
          -38 callsubr
          endchar
        </CharString>
        <CharString name="Imacron">
          882 96 -31 callsubr
          588 -1531 -84 callsubr
          -99 callsubr
          -106 callsubr
          -107 callsubr
          -83 callsubr
        </CharString>
        <CharString name="Iocyrillic">
          1410 562 1544 6 callsubr
          40 callsubr
          33 callsubr
          0 callsubr
          350 -100 -93 callsubr
        </CharString>
        <CharString name="Iogonek">
          882 442 -488 rmoveto
          123 104 54 81 44 hvcurveto
          106 vlineto
          -12 -13 -24 -9 -29 hhcurveto
          -64 -66 77 113 31 4 27 8 20 hvcurveto
          300 110 hlineto
          -124 22 -21 24 89 vvcurveto
          954 vlineto
          89 21 24 124 22 vhcurveto
          110 -99 callsubr
          -106 callsubr
          -107 callsubr
          331 vlineto
          -106 -55 -84 -107 -115 vvcurveto
          -127 105 -84 143 vhcurveto
          endchar
        </CharString>
        <CharString name="Iotadieresisgreek">
          882 245 -13 callsubr
          71 callsubr
          48 -1299 -84 callsubr
          -99 callsubr
          -106 callsubr
          -107 callsubr
          -83 callsubr
        </CharString>
        <CharString name="Iotagreek">
          882 684 -26 callsubr
          -99 callsubr
          -106 callsubr
          -107 callsubr
          -83 callsubr
        </CharString>
        <CharString name="Iotatonosgreek">
          1323 1125 -26 callsubr
          -776 -110 vlineto
          123 -22 22 4 callsubr
          -22 -24 -107 callsubr
          43 callsubr
          -965 784 -60 callgsubr
          endchar
        </CharString>
        <CharString name="Itilde">
          882 585 30 callsubr
          28 callgsubr
          -66 hhcurveto
          -132 -94 35 callsubr
          22 36 48 30 24 132 callsubr
          99 -1287 -84 callsubr
          -99 callsubr
          -106 callsubr
          -107 callsubr
          -83 callsubr
        </CharString>
        <CharString name="Itildebelow">
          882 684 -26 callsubr
          -99 callsubr
          -106 callsubr
          -107 callsubr
          43 callsubr
          -95 -699 rmoveto
          129 92 89 callsubr
          73 callgsubr
          -54 19 -66 hhcurveto
          -128 -4 callgsubr
        </CharString>
        <CharString name="J">
          882 684 299 5 callsubr
          124 22 vhcurveto
          110 -99 callsubr
          -9 callsubr
          42 224 callsubr
        </CharString>
        <CharString name="Jacute">
          882 404 -92 callsubr
          -70 callsubr
          418 -1240 5 callsubr
          124 22 vhcurveto
          110 -99 callsubr
          -9 callsubr
          42 224 callsubr
        </CharString>
        <CharString name="Jcircumflex">
          882 222 -59 callsubr
          -62 callsubr
          599 -1240 5 callsubr
          124 22 vhcurveto
          110 -99 callsubr
          -9 callsubr
          42 224 callsubr
        </CharString>
        <CharString name="Jecyrillic">
          882 684 299 5 callsubr
          124 22 vhcurveto
          110 -99 callsubr
          -9 callsubr
          42 224 callsubr
        </CharString>
        <CharString name="K">
          1628 684 237 18 callsubr
        </CharString>
        <CharString name="Kaacutecyrillic">
          1628 869 -92 callsubr
          -70 callsubr
          -47 -1302 18 callsubr
        </CharString>
        <CharString name="Kacute">
          1628 869 -92 callsubr
          -70 callsubr
          -47 -1302 18 callsubr
        </CharString>
        <CharString name="Kacyrillic">
          1628 684 237 18 callsubr
        </CharString>
        <CharString name="Kappagreek">
          1628 684 237 18 callsubr
        </CharString>
        <CharString name="Kcaron">
          1628 1166 -55 callsubr
          -37 callsubr
          -619 -1633 18 callsubr
        </CharString>
        <CharString name="Kcommaaccent">
          164 callsubr
          171 -720 rmoveto
          177 123 74 126 124 -107 71 -144 -102 -80 -33 -42 -34 -29 callsubr
          47 84 -28 103 hhcurveto
          endchar
        </CharString>
        <CharString name="Kdotbelow">
          164 callsubr
          201 -350 -96 callsubr
          -80 callsubr
        </CharString>
        <CharString name="Klinebelow">
          164 callsubr
          -156 -622 -3 callsubr
        </CharString>
        <CharString name="L">
          22 callsubr
          endchar
        </CharString>
        <CharString name="Lacute">
          1316 403 -92 callsubr
          -48 callsubr
          1004 -1539 rmoveto
          -11 callsubr
          9 callsubr
          endchar
        </CharString>
        <CharString name="Lambdagreek">
          1605 1405 300 rmoveto
          -403 1144 -400 0 -395 -1119 -59 -166 -32 -31 -109 -18 rlinecurve
          -110 480 110 vlineto
          -141 22 -22 38 50 153 rrcurveto
          260 788 254 -791 48 -149 -21 -40 -141 -21 rlinecurve
          -110 824 110 vlineto
          -99 18 -41 23 -53 149 rrcurveto
          endchar
        </CharString>
        <CharString name="Lcaron">
          1316 1095 1173 -43 callgsubr
          289 -1173 rmoveto
          -11 callsubr
          9 callsubr
          endchar
        </CharString>
        <CharString name="Lcircumflexbelow">
          22 callsubr
          412 -472 16 callsubr
        </CharString>
        <CharString name="Lcommaaccent">
          22 callsubr
          621 -483 85 callsubr
          100 callsubr
          82 callsubr
          56 -2 40 41 callsubr
          77 callsubr
        </CharString>
        <CharString name="Ldot">
          22 callsubr
          995 667 4 callgsubr
          endchar
        </CharString>
        <CharString name="Ldotbelow">
          22 callsubr
          652 -113 -96 callsubr
          -72 callsubr
        </CharString>
        <CharString name="Ldotbelowmacron">
          1316 94 141 callsubr
          1174 -1776 rmoveto
          -11 callsubr
          9 callsubr
          652 -113 -96 callsubr
          -72 callsubr
        </CharString>
        <CharString name="Ljecyrillic">
          2289 22 callgsubr
          334 -1064 hlineto
          -92 -20 -22 -124 -21 vhcurveto
          -110 841 vlineto
          394 230 178 278 277 -243 165 -387 hvcurveto
          -204 285 hlineto
          99 24 31 131 21 vhcurveto
          110 -1310 -27 callgsubr
          1726 285 rmoveto
          -187 -79 -125 -180 -8 vhcurveto
          -65 -2 rlineto
          633 58 vlineto
          160 -2 106 -115 -194 vvcurveto
          endchar
        </CharString>
        <CharString name="Llinebelow">
          22 callsubr
          295 -385 -49 callsubr
        </CharString>
        <CharString name="Lslash">
          1316 53 610 rmoveto
          144 33 rlineto
          -398 -99 callgsubr
          1215 vlineto
          -11 callsubr
          rrcurveto
          -122 -5 0 627 300 68 0 133 -300 -69 rlineto
          311 vlineto
          90 23 25 131 22 -29 callgsubr
          -424 vlineto
          -144 -33 rlineto
          endchar
        </CharString>
        <CharString name="M">
          1989 760 1444 49 callsubr
        </CharString>
        <CharString name="Macute">
          1989 956 -76 callgsubr
          -57 -95 49 callsubr
        </CharString>
        <CharString name="Mdotaccent">
          1989 992 55 callgsubr
          82 -71 101 hvcurveto
          -232 -85 49 callsubr
        </CharString>
        <CharString name="Mdotbelow">
          1989 760 1444 rmoveto
          -706 -110 hlineto
          116 -18 23 -35 -2 -102 rrcurveto
          -23 -911 -4 -113 -18 -26 -115 -19 rlinecurve
          -110 447 111 vlineto
          -118 20 -18 24 -1 114 rrcurveto
          -6 917 359 -1186 283 0 121 457 213 729 20 -947 2 -87 -23 -23 -116 -19 rlinecurve
          -110 763 110 vlineto
          -10 callgsubr
          -173 -705 -96 callsubr
          -72 callsubr
        </CharString>
        <CharString name="Mugreek">
          1989 760 1444 49 callsubr
        </CharString>
        <CharString name="N">
          1584 -30 callsubr
          -20 callsubr
          endchar
        </CharString>
        <CharString name="Nacute">
          1584 801 -58 callgsubr
          51 -95 -19 callsubr
          -20 callsubr
          endchar
        </CharString>
        <CharString name="Ncaron">
          1584 1098 -55 callsubr
          -37 callsubr
          -522 -426 -19 callsubr
          -20 callsubr
          endchar
        </CharString>
        <CharString name="Ncircumflexbelow">
          1584 -30 callsubr
          -20 callsubr
          -764 -883 rmoveto
          240 167 239 -167 130 0 -54 callgsubr
        </CharString>
        <CharString name="Ncommaaccent">
          1584 -30 callsubr
          -20 callsubr
          -555 -894 -80 callgsubr
          -143 -102 -81 -33 -42 82 callsubr
          55 -2 41 41 callsubr
          -58 16 19 -30 vhcurveto
          -95 vlineto
          -39 47 84 -28 103 hhcurveto
          endchar
        </CharString>
        <CharString name="Ndotaccent">
          1584 838 -41 callsubr
          -125 -85 -19 callsubr
          -20 callsubr
          endchar
        </CharString>
        <CharString name="Ndotbelow">
          1584 -30 callsubr
          -20 callsubr
          -525 -524 -96 callsubr
          -80 callsubr
        </CharString>
        <CharString name="Ngrave">
          1584 915 74 callsubr
          231 -408 -19 callsubr
          -20 callsubr
          endchar
        </CharString>
        <CharString name="Njecyrillic">
          2477 684 237 rmoveto
          473 420 -473 vlineto
          -83 -19 -23 -112 -21 vhcurveto
          -110 830 vlineto
          394 227 168 263 261 -243 153 -385 hvcurveto
          -205 338 hlineto
          99 23 31 131 21 vhcurveto
          110 -772 -111 vlineto
          112 -20 19 -23 -84 vvcurveto
          -361 -420 361 14 callsubr
          -106 callsubr
          -107 callsubr
          -38 callsubr
          1233 191 rmoveto
          -174 -79 -114 -181 -8 vhcurveto
          -66 -2 0 581 60 -1 rlineto
          159 -2 107 -104 -176 vvcurveto
          endchar
        </CharString>
        <CharString name="Nlinebelow">
          1584 -30 callsubr
          -20 callsubr
          -881 -796 -49 callsubr
        </CharString>
        <CharString name="Ntilde">
          1584 982 156 callsubr
          -269 -88 -19 callsubr
          -20 callsubr
          endchar
        </CharString>
        <CharString name="Nugreek">
          1584 -30 callsubr
          -20 callsubr
          endchar
        </CharString>
        <CharString name="O">
          1 callsubr
          70 callsubr
          -102 callsubr
        </CharString>
        <CharString name="OE">
          2213 79 720 rmoveto
          -447 356 -302 448 vhcurveto
          146 127 29 136 hhcurveto
          862 hlineto
          8 480 rlineto
          -105 hlineto
          -69 -281 -55 -55 -229 -10 rrcurveto
          -171 -7 0 545 120 -1 94 -3 28 -39 30 -163 rlinecurve
          100 539 -100 hlineto
          -30 -160 -28 -41 -94 -3 rrcurveto
          -120 -2 0 518 145 -6 239 -11 51 -53 61 -237 rlinecurve
          105 hlineto
          -9 434 rlineto
          -821 hlineto
          -126 -113 29 -154 hhcurveto
          -513 -319 -319 -434 hvcurveto
          510 -3 rmoveto
          360 138 248 237 30 28 -4 -9 25 vhcurveto
          -1180 vlineto
          -8 -30 -33 -4 -36 hhcurveto
          -217 -142 241 356 hvcurveto
          endchar
        </CharString>
        <CharString name="Oacute">
          1780 854 -92 callsubr
          -70 callsubr
          -637 -821 -104 callsubr
          -102 callsubr
        </CharString>
        <CharString name="Obreve">
          1780 891 -18 callsubr
          -62 callgsubr
          -812 -838 -104 callsubr
          -102 callsubr
        </CharString>
        <CharString name="Ocaron">
          1780 1151 -55 callsubr
          -37 callsubr
          -1209 -1152 -104 callsubr
          -102 callsubr
        </CharString>
        <CharString name="Ocircumflex">
          1780 672 -59 callsubr
          -62 callsubr
          -456 -821 -104 callsubr
          -102 callsubr
        </CharString>
        <CharString name="Ocircumflexacute">
          1780 1267 129 callsubr
          -437 -870 -104 callsubr
          -102 callsubr
        </CharString>
        <CharString name="Ocircumflexdotbelow">
          1780 672 -59 callsubr
          -62 callsubr
          -456 -821 -104 callsubr
          444 -329 303 -484 -90 callgsubr
          vhcurveto
          145 callsubr
          120 callsubr
          278 -847 -96 callsubr
          -72 callsubr
        </CharString>
        <CharString name="Ocircumflexgrave">
          1780 515 118 callsubr
          -437 -870 -104 callsubr
          -102 callsubr
        </CharString>
        <CharString name="Ocircumflexhookabove">
          1780 1207 128 callsubr
          50 hhcurveto
          84 -71 callgsubr
          -437 -870 -104 callsubr
          -102 callsubr
        </CharString>
        <CharString name="Ocircumflextilde">
          1780 1040 170 callsubr
          -78 callgsubr
          -63 callgsubr
          33 -7 -11 38 vhcurveto
          158 callsubr
          -437 -870 -104 callsubr
          -102 callsubr
        </CharString>
        <CharString name="Ocyrillic">
          1 callsubr
          70 callsubr
          -102 callsubr
        </CharString>
        <CharString name="Odblgrave">
          1780 747 37 callsubr
          353 27 callsubr
          136 callsubr
          -1107 -821 -104 callsubr
          -102 callsubr
        </CharString>
        <CharString name="Odieresis">
          1780 696 1544 6 callsubr
          40 callsubr
          33 callsubr
          0 callsubr
          -1008 -826 -104 callsubr
          -102 callsubr
        </CharString>
        <CharString name="Odieresismacron">
          1780 515 36 callsubr
          191 -479 rmoveto
          76 -61 callsubr
          -76 hvcurveto
          147 callsubr
          407 hmoveto
          75 -61 callsubr
          -75 hvcurveto
          147 callsubr
          -996 -829 -104 callsubr
          -102 callsubr
        </CharString>
        <CharString name="Odotaccent">
          1780 891 -41 callsubr
          -812 -811 -104 callsubr
          -102 callsubr
        </CharString>
        <CharString name="Odotaccentmacron">
          1780 515 1842 42 callsubr
          100 callgsubr
          -67 -52 -76 -74 66 -53 82 hvcurveto
          -812 -816 -104 callsubr
          -102 callsubr
        </CharString>
        <CharString name="Odotbelow">
          1 callsubr
          70 callsubr
          444 -329 303 -484 -90 callgsubr
          vhcurveto
          145 callsubr
          120 callsubr
          278 -847 -96 callsubr
          -72 callsubr
        </CharString>
        <CharString name="Ograve">
          1780 968 74 callsubr
          -456 -1134 -104 callsubr
          -102 callsubr
        </CharString>
        <CharString name="Ohookabove">
          1780 938 159 callsubr
          -859 -1190 -104 callsubr
          -102 callsubr
        </CharString>
        <CharString name="Ohorn">
          1831 79 718 -104 callsubr
          48 callsubr
        </CharString>
        <CharString name="Ohornacute">
          1831 861 -92 callsubr
          -48 callsubr
          -643 -821 -104 callsubr
          48 callsubr
        </CharString>
        <CharString name="Ohorndotbelow">
          1831 79 718 -104 callsubr
          277 -139 233 -210 120 vhcurveto
          -10 48 50 -5 51 hhcurveto
          168 115 71 133 1 hvcurveto
          2 118 -101 117 -143 56 rrcurveto
          -109 hlineto
          25 -30 18 -62 -1 -57 rrcurveto
          -129 -2 -78 -109 -153 -108 -111 24 -136 -44 callgsubr
          120 callsubr
          277 -847 -96 callsubr
          -72 callsubr
        </CharString>
        <CharString name="Ohorngrave">
          1831 974 -75 callgsubr
          -462 -1134 -104 callsubr
          48 callsubr
        </CharString>
        <CharString name="Ohornhookabove">
          1831 945 140 callsubr
          -53 callgsubr
          -866 -1190 -104 callsubr
          48 callsubr
        </CharString>
        <CharString name="Ohorntilde">
          1831 1042 30 callsubr
          28 callgsubr
          -67 hhcurveto
          -131 -94 35 callsubr
          22 36 48 29 25 132 callsubr
          -963 -814 -104 callsubr
          48 callsubr
        </CharString>
        <CharString name="Ohungarumlaut">
          1780 643 -19 callgsubr
          -1400 -1145 -104 callsubr
          -102 callsubr
        </CharString>
        <CharString name="Oinvertedbreve">
          1780 891 73 callsubr
          4 -16 hvcurveto
          125 1 hlineto
          85 97 56 133 131 99 61 callsubr
          -812 -1196 -104 callsubr
          -102 callsubr
        </CharString>
        <CharString name="Omacron">
          1780 546 -31 callsubr
          -467 -1058 -104 callsubr
          -102 callsubr
        </CharString>
        <CharString name="Omacronacute">
          1780 1267 -40 callsubr
          -225 vmoveto
          753 155 -753 hlineto
          -436 -1021 -104 callsubr
          -102 callsubr
        </CharString>
        <CharString name="Omacrongrave">
          1780 515 -14 callsubr
          -504 vmoveto
          753 155 -753 hlineto
          -436 -1021 -104 callsubr
          -102 callsubr
        </CharString>
        <CharString name="Omegagreek">
          1662 81 188 callsubr
          endchar
        </CharString>
        <CharString name="Omegatonosgreek">
          1932 351 188 callsubr
          -137 565 -60 callgsubr
          endchar
        </CharString>
        <CharString name="Omicrongreek">
          1 callsubr
          70 callsubr
          -102 callsubr
        </CharString>
        <CharString name="Omicrontonosgreek">
          1972 270 718 rmoveto
          -445 328 -303 485 489 322 326 431 444 -329 303 -484 -489 -322 -325 -431 vhcurveto
          -110 311 -60 callgsubr
          801 -295 rmoveto
          360 82 232 191 120 callsubr
          endchar
        </CharString>
        <CharString name="Oogonek">
          1 callsubr
          203 callsubr
        </CharString>
        <CharString name="Oogonekmacron">
          1780 546 -31 callsubr
          -467 -1058 rmoveto
          203 callsubr
        </CharString>
        <CharString name="Oslash">
          1 callsubr
          184 callsubr
        </CharString>
        <CharString name="Oslashacute">
          1780 854 -92 callsubr
          -70 callsubr
          -637 -821 rmoveto
          184 callsubr
        </CharString>
        <CharString name="Otilde">
          1780 1035 156 callsubr
          -956 -814 -104 callsubr
          -102 callsubr
        </CharString>
        <CharString name="Otildeacute">
          1780 1267 -40 callsubr
          525 -256 69 callsubr
          123 callsubr
          -95 callgsubr
          -961 -835 -104 callsubr
          -102 callsubr
        </CharString>
        <CharString name="Otildedieresis">
          1780 706 1834 rmoveto
          76 61 47 67 69 -61 46 -76 -45 callgsubr
          407 hmoveto
          75 61 47 67 69 -61 46 -75 -45 callgsubr
          -35 -281 69 callsubr
          123 callsubr
          -95 callgsubr
          -961 -835 -104 callsubr
          -102 callsubr
        </CharString>
        <CharString name="Otildemacron">
          1780 515 36 callsubr
          525 -473 69 callsubr
          123 callsubr
          -95 callgsubr
          -961 -835 -104 callsubr
          -102 callsubr
        </CharString>
        <CharString name="P">
          1599 1532 1006 50 callsubr
        </CharString>
        <CharString name="Pacute">
          1599 771 -58 callgsubr
          900 -533 50 callsubr
        </CharString>
        <CharString name="Pdotaccent">
          1599 808 -41 callsubr
          724 -523 50 callsubr
        </CharString>
        <CharString name="Pecyrillic">
          1797 1599 -72 callgsubr
          -1691 84 callsubr
          -106 callsubr
          -107 callsubr
          -38 callsubr
          1072 429 -1072 vlineto
          -83 -20 -23 -112 -21 101 callsubr
          -88 callgsubr
        </CharString>
        <CharString name="Phigreek">
          2079 56 719 rmoveto
          -313 269 -172 488 -13 vhcurveto
          -8 -68 -33 -25 -112 -18 rrcurveto
          -110 759 110 vlineto
          -111 18 -34 25 -8 68 rrcurveto
          487 12 271 169 313 vvcurveto
          319 -298 169 -460 13 vhcurveto
          6 73 32 26 115 19 rrcurveto
          110 -759 -110 vlineto
          115 -19 32 -26 6 -73 rrcurveto
          -458 -12 -299 -166 -319 vvcurveto
          1480 5 rmoveto
          -224 -111 -127 -160 -24 vhcurveto
          740 vlineto
          175 -23 96 -129 -213 vvcurveto
          -993 -2 rmoveto
          212 103 131 169 23 vhcurveto
          -739 vlineto
          -163 23 -109 126 224 vvcurveto
          endchar
        </CharString>
        <CharString name="Pigreek">
          1770 1573 -72 callgsubr
          -1665 84 callsubr
          -106 callsubr
          -107 callsubr
          -38 callsubr
          1072 402 -1072 vlineto
          -83 -19 -23 -112 -21 101 callsubr
          -88 callgsubr
        </CharString>
        <CharString name="Psigreek">
          2051 1250 261 rmoveto
          204 vlineto
          380 19 172 135 57 362 rrcurveto
          28 181 19 118 29 34 96 6 rlinecurve
          111 vlineto
          6 -38 -82 7 -68 hhcurveto
          -219 -106 -79 -232 -37 hvcurveto
          -28 -183 -35 -218 -39 -97 -129 -29 rlinecurve
          600 vlineto
          87 21 22 111 18 vhcurveto
          111 -713 -111 vlineto
          111 -18 21 -22 -87 vvcurveto
          -600 vlineto
          -129 29 -39 97 -35 218 -29 183 rcurveline
          232 -36 -107 79 -218 hhcurveto
          -69 -81 -7 -6 -39 hvcurveto
          -111 vlineto
          97 -6 29 -34 18 -118 rrcurveto
          29 -181 57 -362 171 -135 381 -19 rlinecurve
          -204 -7 callsubr
          759 110 vlineto
          -131 21 -24 31 99 vvcurveto
          endchar
        </CharString>
        <CharString name="Q">
          1 callsubr
          -389 249 -280 386 -65 vhcurveto
          165 -165 rlineto
          -168 159 120 -55 184 hhcurveto
          138 139 31 60 111 hvcurveto
          103 vlineto
          -120 -12 -99 47 -176 150 -79 66 rcurveline
          278 119 168 256 311 vvcurveto
          444 -327 303 -483 -490 -323 -325 -431 vhcurveto
          535 16 rmoveto
          360 81 232 189 178 104 -249 -366 -361 -81 -232 -189 -178 -104 249 367 vhcurveto
          endchar
        </CharString>
        <CharString name="R">
          1600 1502 1047 12 callsubr
        </CharString>
        <CharString name="Racute">
          1600 740 -76 callgsubr
          901 -492 12 callsubr
        </CharString>
        <CharString name="Rcaron">
          1600 1037 78 callgsubr
          329 -823 12 callsubr
        </CharString>
        <CharString name="Rcommaaccent">
          161 callsubr
          -182 -1505 85 callsubr
          100 callsubr
          82 callsubr
          55 -2 41 41 callsubr
          77 callsubr
        </CharString>
        <CharString name="Rdblgrave">
          1600 633 37 callsubr
          352 27 callsubr
          -351 -11 hlineto
          198 -313 rlineto
          146 hlineto
          431 -492 12 callsubr
        </CharString>
        <CharString name="Rdotaccent">
          1600 776 55 callgsubr
          82 -71 101 hvcurveto
          726 -482 12 callsubr
        </CharString>
        <CharString name="Rdotbelow">
          161 callsubr
          -151 -1135 -96 callsubr
          -72 callsubr
        </CharString>
        <CharString name="Rdotbelowmacron">
          1600 431 141 callsubr
          1071 -729 rmoveto
          238 -3 -195 159 -444 hhcurveto
          -807 -35 callgsubr
          -23 -123 -23 vhcurveto
          -110 -38 callsubr
          152 callsubr
          -151 -1135 -96 callsubr
          -72 callsubr
        </CharString>
        <CharString name="Rhogreek">
          1599 1532 1006 50 callsubr
        </CharString>
        <CharString name="Rinvertedbreve">
          1600 776 1914 rmoveto
          -236 -124 -139 -157 -23 1 -23 4 -16 hvcurveto
          126 1 hlineto
          85 96 56 133 132 98 61 callsubr
          726 -867 12 callsubr
        </CharString>
        <CharString name="Rlinebelow">
          161 callsubr
          -508 -1407 -49 callsubr
        </CharString>
        <CharString name="S">
          1397 641 -30 104 callsubr
          endchar
        </CharString>
        <CharString name="Sacute">
          1397 707 -76 callgsubr
          73 -1569 104 callsubr
          endchar
        </CharString>
        <CharString name="Sacutedotaccent">
          1397 744 1785 rmoveto
          82 65 54 74 75 -65 53 -82 -82 -66 -53 -75 -74 65 -54 83 hvcurveto
          376 -165 rmoveto
          190 vlineto
          -753 -192 rlineto
          -87 vlineto
          274 -1561 104 callsubr
          endchar
        </CharString>
        <CharString name="Scaron">
          1397 1004 78 callgsubr
          -499 -1900 104 callsubr
          endchar
        </CharString>
        <CharString name="Scarondotaccent">
          1397 744 1809 rmoveto
          82 65 53 74 76 -65 52 -82 -82 -66 -52 -76 -74 65 -53 83 hvcurveto
          384 2 rmoveto
          -384 -84 -385 84 0 -91 348 -173 75 0 347 173 rlineto
          -488 -1750 104 callsubr
          endchar
        </CharString>
        <CharString name="Scedilla">
          1397 647 174 callsubr
          -3 0 -2 hhcurveto
          56 53 rlineto
          334 24 254 157 299 vvcurveto
          226 -130 159 -288 88 vhcurveto
          -137 41 rlineto
          -145 45 -64 57 90 vvcurveto
          97 75 70 144 183 127 -129 -206 45 vhcurveto
          106 hlineto
          -7 384 rlineto
          63 -100 -174 36 -199 hhcurveto
          -425 -250 -191 -289 -222 143 -154 275 -83 hvcurveto
          137 -42 rlineto
          147 -45 62 -61 -96 vvcurveto
          -100 -85 -73 -145 -193 -166 132 239 -51 vhcurveto
          -105 hlineto
          10 -415 rlineto
          103 -55 186 -42 195 -6 -102 -110 rcurveline
          -82 vlineto
          3 9 19 3 15 hhcurveto
          61 37 160 callsubr
        </CharString>
        <CharString name="Schwa">
          1592 734 -30 rmoveto
          486 294 296 445 502 -342 261 -495 -216 -201 -34 -59 -95 hvcurveto
          -7 -431 rlineto
          106 hlineto
          226 59 121 149 200 hhcurveto
          215 124 -204 -387 9 hvcurveto
          -928 hlineto
          -6 -31 -6 -51 -48 vvcurveto
          -382 244 -252 438 vhcurveto
          -224 572 rmoveto
          20 1 21 1 19 vhcurveto
          479 2 rlineto
          -329 -13 -90 -157 -150 hhcurveto
          -166 -62 195 229 hvcurveto
          endchar
        </CharString>
        <CharString name="Scircumflex">
          1397 524 -59 callsubr
          -320 0 -218 -323 rlineto
          254 -1569 104 callsubr
          endchar
        </CharString>
        <CharString name="Scommaaccent">
          1397 641 -30 104 callsubr
          11 -453 -80 callgsubr
          -144 -101 -81 -33 -42 -34 -29 callsubr
          47 84 -28 103 hhcurveto
          endchar
        </CharString>
        <CharString name="Sdotaccent">
          1397 744 62 callsubr
          -103 -1559 104 callsubr
          endchar
        </CharString>
        <CharString name="Sdotbelow">
          1397 641 -30 104 callsubr
          41 -83 -96 callsubr
          -80 callsubr
        </CharString>
        <CharString name="Sdotbelowdotaccent">
          1397 744 62 callsubr
          -103 -1559 104 callsubr
          41 -83 -96 callsubr
          -80 callsubr
        </CharString>
        <CharString name="Shacyrillic">
          2616 2418 -72 callgsubr
          -763 94 callsubr
          131 callsubr
          -750 94 callsubr
          131 callsubr
          -763 84 callsubr
          -106 callsubr
          -107 callsubr
          2510 110 vlineto
          -88 callgsubr
        </CharString>
        <CharString name="Shchacyrillic">
          2638 2607 135 rmoveto
          -189 1064 hlineto
          -40 callgsubr
          94 callsubr
          131 callsubr
          -750 94 callsubr
          131 callsubr
          -763 84 callsubr
          -106 callsubr
          -107 callsubr
          2090 vlineto
          226 53 -49 -280 87 hvcurveto
          107 hlineto
          endchar
        </CharString>
        <CharString name="Sigmagreek">
          1339 1234 1444 rmoveto
          -1199 -106 hlineto
          462 -660 -456 -430 rlineto
          -248 1235 vlineto
          10 604 rlineto
          -127 hlineto
          -231 -57 -62 -48 -255 hhcurveto
          -465 hlineto
          571 478 0 29 -323 485 198 -6 261 -10 51 -62 59 -223 rlinecurve
          107 hlineto
          endchar
        </CharString>
        <CharString name="Softsigncyrillic">
          1570 206 callsubr
          -510 -4 0 callgsubr
        </CharString>
        <CharString name="T">
          -21 callsubr
          endchar
        </CharString>
        <CharString name="Taugreek">
          -21 callsubr
          endchar
        </CharString>
        <CharString name="Tbar">
          1464 196 678 rmoveto
          293 -418 hlineto
          -99 -24 -30 -131 -21 vhcurveto
          -111 796 111 vlineto
          -131 21 -24 30 99 vvcurveto
          418 293 124 -293 515 229 callsubr
          -10 435 -1366 0 68 callsubr
          -515 -293 vlineto
          endchar
        </CharString>
        <CharString name="Tcaron">
          1464 992 -55 callsubr
          -37 callsubr
          286 -426 rmoveto
          -1366 hlineto
          68 callsubr
          -1056 -7 callsubr
          163 callsubr
          endchar
        </CharString>
        <CharString name="Tcedilla">
          1464 697 -483 rmoveto
          167 143 69 134 134 99 callgsubr
          325 110 hlineto
          -131 21 -24 31 99 vvcurveto
          1056 229 callsubr
          -10 435 -1366 0 68 callsubr
          -1056 -7 callsubr
          334 vlineto
          -127 -139 1 -82 rlineto
          3 8 20 3 14 hhcurveto
          62 36 160 callsubr
        </CharString>
        <CharString name="Tcircumflexbelow">
          -21 callsubr
          -933 -1481 16 callsubr
        </CharString>
        <CharString name="Tcommaaccent">
          -21 callsubr
          -723 -1492 55 callsubr
          -34 hvcurveto
          -93 vlineto
          21 8 14 callgsubr
          46 85 -28 103 hhcurveto
          endchar
        </CharString>
        <CharString name="Tdotaccent">
          1464 732 -41 callsubr
          683 -85 rmoveto
          -1366 hlineto
          68 callsubr
          -1056 -7 callsubr
          163 callsubr
          endchar
        </CharString>
        <CharString name="Tdotbelow">
          -21 callsubr
          -693 -1122 -96 callsubr
          -72 callsubr
        </CharString>
        <CharString name="Tecyrillic">
          -21 callsubr
          endchar
        </CharString>
        <CharString name="Thetagreek">
          1799 898 -30 rmoveto
          497 328 325 431 445 -334 303 -488 -497 -327 -326 -431 -444 333 -303 488 hvcurveto
          5 127 rmoveto
          -215 -121 241 395 392 101 222 228 217 120 -239 -398 -394 -102 -219 -228 hvcurveto
          -236 359 rmoveto
          83 hlineto
          133 21 36 45 77 hhcurveto
          34 hlineto
          77 37 -45 -133 20 hvcurveto
          83 519 -83 hlineto
          -133 -20 -37 -44 -77 hhcurveto
          -34 hlineto
          -77 -36 44 133 -21 hvcurveto
          -83 hlineto
          endchar
        </CharString>
        <CharString name="Thorn">
          1575 1524 746 rmoveto
          279 -245 120 -420 vhcurveto
          -175 38 hlineto
          99 24 31 130 21 -29 callgsubr
          -106 callsubr
          -107 callsubr
          137 callsubr
          55 175 vlineto
          400 2 265 153 275 vvcurveto
          -509 -22 rmoveto
          -171 -104 -101 -171 -6 vhcurveto
          -56 -3 0 576 56 -3 rlineto
          185 -7 90 -120 -165 vvcurveto
          endchar
        </CharString>
        <CharString name="Tlinebelow">
          -21 callsubr
          -1050 -1394 -49 callsubr
        </CharString>
        <CharString name="Tsecyrillic">
          1819 1789 135 rmoveto
          -190 1064 hlineto
          -40 callgsubr
          94 callsubr
          -84 vvcurveto
          -1071 -429 1071 14 callsubr
          -106 callsubr
          -107 callsubr
          1271 vlineto
          226 53 -49 -280 87 hvcurveto
          107 hlineto
          endchar
        </CharString>
        <CharString name="Tshecyrillic">
          1957 214 callsubr
          376 vlineto
          22 36 60 14 67 hhcurveto
          133 78 -74 -168 hvcurveto
          -416 619 110 vlineto
          -113 21 -20 23 83 vvcurveto
          178 vlineto
          307 -213 122 -279 -1 vhcurveto
          -167 -129 -37 -43 -72 hvcurveto
          551 93 callgsubr
        </CharString>
        <CharString name="U">
          1604 171 1205 -89 callsubr
        </CharString>
        <CharString name="Uacute">
          1604 852 -92 callsubr
          -70 callsubr
          -543 -334 -89 callsubr
        </CharString>
        <CharString name="Ubreve">
          1604 889 -18 callsubr
          -99 57 85 vhcurveto
          1 -126 vlineto
          -3 -64 callgsubr
          -718 -351 -89 callsubr
        </CharString>
        <CharString name="Ubrevecyrillic">
          1534 875 -7 callgsubr
          21 40 44 vvcurveto
          81 -64 65 -88 -92 -60 -65 -88 -153 162 -98 226 vhcurveto
          -650 -1378 189 callsubr
        </CharString>
        <CharString name="Ucaron">
          1604 1149 -55 callsubr
          -37 callsubr
          -1115 -665 -89 callsubr
        </CharString>
        <CharString name="Ucircumflex">
          1604 670 -59 callsubr
          -62 callsubr
          -362 -334 -89 callsubr
        </CharString>
        <CharString name="Ucircumflexbelow">
          109 callsubr
          453 -1677 177 callsubr
          -223 -374 rlineto
          endchar
        </CharString>
        <CharString name="Ucyrillic">
          1534 225 165 189 callsubr
        </CharString>
        <CharString name="Udblgrave">
          1604 745 37 callsubr
          353 27 callsubr
          136 callsubr
          -1013 -334 -89 callsubr
        </CharString>
        <CharString name="Udieresis">
          1604 694 1544 6 callsubr
          40 callsubr
          390 hmoveto
          91 71 callsubr
          -913 -339 -89 callsubr
        </CharString>
        <CharString name="Udieresisacute">
          1604 1265 -37 callgsubr
          76 -61 callsubr
          -76 -33 callsubr
          -1 callsubr
          -902 -342 -89 callsubr
        </CharString>
        <CharString name="Udieresisbelow">
          109 callsubr
          445 -1661 228 callsubr
          84 -71 105 166 callsubr
        </CharString>
        <CharString name="Udieresiscaron">
          1604 1264 216 callsubr
          -902 -342 -89 callsubr
        </CharString>
        <CharString name="Udieresisgrave">
          1604 513 -14 callsubr
          191 -541 rmoveto
          76 -61 callsubr
          -76 -33 callsubr
          -1 callsubr
          -902 -342 -89 callsubr
        </CharString>
        <CharString name="Udieresismacron">
          1604 513 36 callsubr
          191 -479 rmoveto
          76 -61 callsubr
          -76 -33 callsubr
          -1 callsubr
          -902 -342 -89 callsubr
        </CharString>
        <CharString name="Udotbelow">
          109 callsubr
          692 -1318 -96 callsubr
          -72 callsubr
        </CharString>
        <CharString name="Ugrave">
          1604 966 74 callsubr
          -362 -647 -89 callsubr
        </CharString>
        <CharString name="Uhookabove">
          1604 936 159 callsubr
          -765 -703 -89 callsubr
        </CharString>
        <CharString name="Uhorn">
          1797 172 550 47 callsubr
        </CharString>
        <CharString name="Uhornacute">
          1797 857 -92 callsubr
          -48 callsubr
          -546 -989 47 callsubr
        </CharString>
        <CharString name="Uhorndotbelow">
          1797 172 550 rmoveto
          -379 276 -201 367 364 247 229 367 2 vhcurveto
          6 793 rlineto
          -2 22 23 -2 21 hhcurveto
          167 117 71 129 121 -96 106 -138 55 hvcurveto
          -109 hlineto
          25 -30 18 -61 -1 -59 rrcurveto
          -125 -1 -84 -118 -185 hhcurveto
          -101 -111 hlineto
          139 -25 19 -22 -111 vvcurveto
          6 -598 rlineto
          -242 1 -113 -128 -187 hhcurveto
          -191 -128 120 241 hvcurveto
          633 vlineto
          87 22 20 137 26 vhcurveto
          110 -790 -110 vlineto
          122 -24 23 -22 -87 vvcurveto
          648 -1314 -96 callsubr
          -72 callsubr
        </CharString>
        <CharString name="Uhorngrave">
          1797 970 -75 callgsubr
          -365 -1302 47 callsubr
        </CharString>
        <CharString name="Uhornhookabove">
          1797 941 140 callsubr
          -53 callgsubr
          -769 -1358 47 callsubr
        </CharString>
        <CharString name="Uhorntilde">
          1797 1038 30 callsubr
          28 callgsubr
          -67 hhcurveto
          -131 38 callgsubr
          -866 -982 47 callsubr
        </CharString>
        <CharString name="Uhungarumlaut">
          1604 641 -19 callgsubr
          -1306 -658 -89 callsubr
        </CharString>
        <CharString name="Uinvertedbreve">
          1604 889 73 callsubr
          107 callgsubr
          99 61 callsubr
          -718 -709 -89 callsubr
        </CharString>
        <CharString name="Umacron">
          1604 544 -31 callsubr
          -373 -571 -89 callsubr
        </CharString>
        <CharString name="Umacrondieresis">
          1604 704 162 callsubr
          -533 -250 rmoveto
          698 155 -698 hlineto
          -369 -534 -89 callsubr
        </CharString>
        <CharString name="Uogonek">
          1604 857 98 callgsubr
          -25 -9 -29 hhcurveto
          -63 -67 71 107 27 4 24 7 19 hvcurveto
          305 47 177 221 4 319 rrcurveto
          7 609 2 110 17 27 114 20 rlinecurve
          111 -448 -111 vlineto
          127 -22 20 -27 1 157 callsubr
          -654 vlineto
          -366 256 -201 349 -13 vhcurveto
          -95 -56 -72 -92 -100 vvcurveto
          -127 106 -84 142 vhcurveto
          endchar
        </CharString>
        <CharString name="Upsilondieresisgreek">
          1510 672 -13 callsubr
          99 callsubr
          -73 -65 -92 -92 73 -65 91 hvcurveto
          -857 -397 -60 callsubr
        </CharString>
        <CharString name="Upsilongreek">
          1510 206 1147 -60 callsubr
        </CharString>
        <CharString name="Upsilontonosgreek">
          1988 684 1147 rmoveto
          311 -559 rlineto
          -327 -7 callsubr
          795 -73 callsubr
          350 vlineto
          303 544 73 133 27 27 110 19 rlinecurve
          110 -466 -110 vlineto
          132 -18 14 75 callgsubr
          13 33 131 17 rlinecurve
          110 -810 -110 vlineto
          104 -20 31 -30 76 -137 rrcurveto
          -524 -118 -60 callgsubr
          endchar
        </CharString>
        <CharString name="Uring">
          1604 572 1747 67 callgsubr
          -83 -125 vhcurveto
          235 hmoveto
          65 35 44 47 47 35 -44 -65 -65 -35 -43 -47 -47 -35 44 64 vhcurveto
          -636 -542 -89 callsubr
        </CharString>
        <CharString name="Utilde">
          1604 1033 156 callsubr
          -862 -327 -89 callsubr
        </CharString>
        <CharString name="Utildeacute">
          1604 1265 -40 callsubr
          525 -256 69 callsubr
          123 callsubr
          44 -13 rlineto
          -15 55 55 -14 60 hhcurveto
          -867 -348 -89 callsubr
        </CharString>
        <CharString name="Utildebelow">
          109 callsubr
          833 -1659 rmoveto
          130 91 89 callsubr
          -23 -36 -47 -30 -25 13 25 -40 vhcurveto
          -107 callgsubr
          -100 callgsubr
          106 callgsubr
          53 -20 66 hhcurveto
          endchar
        </CharString>
        <CharString name="V">
          1571 195 1118 rmoveto
          199 callsubr
          endchar
        </CharString>
        <CharString name="Vdotbelow">
          1571 195 1118 rmoveto
          199 callsubr
          605 -1231 -96 callsubr
          -80 callsubr
        </CharString>
        <CharString name="Vecyrillic">
          1618 1551 432 112 callsubr
        </CharString>
        <CharString name="Vtilde">
          1571 1027 1532 rmoveto
          132 95 99 256 -7 hvcurveto
          -128 hlineto
          -89 -22 -36 -47 -30 -25 12 25 -39 vhcurveto
          -47 callgsubr
          35 callsubr
          22 36 48 30 24 132 callsubr
          -832 -414 rmoveto
          199 callsubr
          endchar
        </CharString>
        <CharString name="W">
          2404 186 1118 7 callsubr
        </CharString>
        <CharString name="Wacute">
          2404 1307 -92 callsubr
          -48 callsubr
          -982 -421 7 callsubr
        </CharString>
        <CharString name="Wcircumflex">
          2404 1124 -50 callgsubr
          137 0 -217 323 -320 0 -218 -323 rlineto
          -801 -421 7 callsubr
        </CharString>
        <CharString name="Wdieresis">
          2404 1148 -13 callsubr
          99 callsubr
          -73 -65 -92 -92 73 -65 91 hvcurveto
          -1353 -426 7 callsubr
        </CharString>
        <CharString name="Wdotaccent">
          2404 1344 62 callsubr
          -1158 -411 7 callsubr
        </CharString>
        <CharString name="Wdotbelow">
          2404 186 1118 rmoveto
          342 -1118 384 0 292 966 279 -966 395 0 337 1109 54 177 31 29 111 19 rlinecurve
          110 -478 -110 vlineto
          133 -21 15 -32 -41 -162 rrcurveto
          -189 -736 -199 740 -43 159 10 29 135 23 rlinecurve
          110 -771 -110 vlineto
          129 -21 11 -29 -38 -149 rrcurveto
          -197 -753 -193 734 -42 163 15 32 140 23 rlinecurve
          110 -813 -110 vlineto
          109 -19 31 -30 51 -167 rrcurveto
          1017 -1231 -96 callsubr
          -80 callsubr
        </CharString>
        <CharString name="Wgrave">
          2404 1420 1539 rmoveto
          138 hlineto
          -96 323 rlineto
          -475 -10 hlineto
          -801 -734 7 callsubr
        </CharString>
        <CharString name="X">
          1545 290 335 46 callsubr
        </CharString>
        <CharString name="Xdieresis">
          1545 699 -13 callsubr
          73 65 92 92 -73 65 -91 -90 -74 -65 -92 -92 73 -65 91 hvcurveto
          -800 -1209 46 callsubr
        </CharString>
        <CharString name="Xdotaccent">
          1545 895 1529 rmoveto
          101 82 71 101 101 -82 70 -101 -101 -83 callgsubr
          -605 -1194 46 callsubr
        </CharString>
        <CharString name="Xigreek">
          1406 1323 1444 rmoveto
          -1238 hlineto
          -24 -537 rlineto
          106 hlineto
          196 47 54 22 238 hhcurveto
          394 hlineto
          237 55 -22 -196 47 hvcurveto
          106 hlineto
          -686 -255 rmoveto
          88 hlineto
          131 45 -42 -144 29 hvcurveto
          100 510 -100 hlineto
          -143 -29 -45 -42 -131 hhcurveto
          -88 hlineto
          -131 -45 42 143 -29 hvcurveto
          -100 -510 100 hlineto
          144 29 45 42 131 hhcurveto
          683 -652 rmoveto
          21 585 rlineto
          -106 hlineto
          -227 -53 -60 -34 -248 hhcurveto
          -387 hlineto
          -248 -59 34 227 -53 hvcurveto
          -106 hlineto
          21 -585 rlineto
          endchar
        </CharString>
        <CharString name="Xigreek.1">
          1406 1342 hmoveto
          21 585 rlineto
          -106 hlineto
          -227 -53 -60 -34 -247 hhcurveto
          -144 328 hlineto
          125 45 -42 -144 29 hvcurveto
          100 510 -100 hlineto
          -29 -141 -44 -43 -126 -1 rrcurveto
          334 147 vlineto
          238 54 -23 -195 47 hvcurveto
          106 hlineto
          -22 537 -1238 0 -24 -537 rlineto
          106 hlineto
          195 47 54 23 238 hhcurveto
          149 -334 hlineto
          -127 -45 42 143 -29 hvcurveto
          -100 -510 100 hlineto
          29 143 44 42 128 1 rrcurveto
          -328 -145 vlineto
          -248 -60 34 227 -53 hvcurveto
          -106 hlineto
          21 -585 rlineto
          endchar
        </CharString>
        <CharString name="Y">
          1510 206 1147 -60 callsubr
        </CharString>
        <CharString name="Yacute">
          1510 831 -92 callsubr
          -48 callsubr
          -486 -392 -60 callsubr
        </CharString>
        <CharString name="Ycircumflex">
          1510 648 -50 callgsubr
          138 0 -218 323 -320 0 -218 -323 rlineto
          -305 -392 -60 callsubr
        </CharString>
        <CharString name="Ydieresis">
          1510 672 -13 callsubr
          99 callsubr
          -73 -65 -92 -92 73 -65 91 hvcurveto
          -857 -397 -60 callsubr
        </CharString>
        <CharString name="Ydotaccent">
          1510 868 62 callsubr
          -662 -382 -60 callsubr
        </CharString>
        <CharString name="Ydotbelow">
          1510 206 1147 rmoveto
          310 -559 rlineto
          -327 vlineto
          -99 -23 -31 -131 -21 vhcurveto
          -110 795 -73 callsubr
          350 vlineto
          302 544 74 133 27 27 110 19 rlinecurve
          110 -23 callgsubr
          570 -1260 -96 callsubr
          -72 callsubr
        </CharString>
        <CharString name="Yericyrillic">
          2364 206 callsubr
          649 -211 -84 callsubr
          -777 -110 vlineto
          124 -22 21 4 callsubr
          -21 -24 -124 -22 vhcurveto
          -110 777 -34 callgsubr
          -1159 207 0 callgsubr
        </CharString>
        <CharString name="Ygrave">
          1510 944 -75 callgsubr
          -305 -705 -60 callsubr
        </CharString>
        <CharString name="Yhookabove">
          1510 915 140 callsubr
          -53 callgsubr
          -709 -761 -60 callsubr
        </CharString>
        <CharString name="Yicyrillic">
          882 245 -13 callsubr
          71 callsubr
          48 -1299 -84 callsubr
          -99 callsubr
          -106 callsubr
          -107 callsubr
          -83 callsubr
        </CharString>
        <CharString name="Ymacron">
          1510 522 141 callsubr
          -316 -629 -60 callsubr
        </CharString>
        <CharString name="Ytilde">
          1510 1012 30 callsubr
          28 callgsubr
          -67 hhcurveto
          -131 38 callgsubr
          -806 -385 -60 callsubr
        </CharString>
        <CharString name="Z">
          1393 1310 hmoveto
          11 callsubr
        </CharString>
        <CharString name="Zacute">
          1393 692 -58 callgsubr
          757 -1539 rmoveto
          11 callsubr
        </CharString>
        <CharString name="Zcaron">
          1393 989 -55 callsubr
          -37 callsubr
          184 -1870 rmoveto
          11 callsubr
        </CharString>
        <CharString name="Zcircumflex">
          1393 509 1539 226 callsubr
          937 -1539 rmoveto
          11 callsubr
        </CharString>
        <CharString name="Zdotaccent">
          1393 729 -41 callsubr
          581 -1529 rmoveto
          11 callsubr
        </CharString>
        <CharString name="Zdotbelow">
          218 callsubr
          641 -114 rmoveto
          -101 -82 -71 -102 -101 82 -71 101 101 82 71 101 102 -82 71 -101 hvcurveto
          endchar
        </CharString>
        <CharString name="Zecyrillic">
          1372 1305 424 rmoveto
          222 -204 118 -264 18 vhcurveto
          241 32 192 110 194 vvcurveto
          240 -255 116 -422 -188 -187 -44 -54 -98 vhcurveto
          -7 -396 rlineto
          106 hlineto
          213 46 110 133 168 hhcurveto
          141 81 -88 -159 -174 -105 -96 -174 hvcurveto
          -108 -135 108 hlineto
          198 109 -97 -174 -187 -102 -98 -158 -154 -129 120 230 -50 hvcurveto
          -106 hlineto
          8 -397 rlineto
          -58 107 190 -43 185 hhcurveto
          397 324 150 304 hvcurveto
          endchar
        </CharString>
        <CharString name="Zetagreek">
          1393 1310 hmoveto
          11 callsubr
        </CharString>
        <CharString name="Zhecyrillic">
          2312 511 hmoveto
          333 658 76 1 rlineto
          -422 vlineto
          -86 -20 -22 -113 -19 vhcurveto
          -110 716 110 vlineto
          -113 19 -20 22 86 vvcurveto
          422 vlineto
          76 -1 333 -658 rlineto
          539 106 hlineto
          -64 28 -28 36 -123 232 rrcurveto
          -317 607 88 88 176 174 64 37 140 26 rlinecurve
          110 -549 -110 vlineto
          121 -19 20 -37 -97 -116 -304 -368 rcurveline
          -75 413 hlineto
          86 20 22 113 19 vhcurveto
          110 -716 -110 vlineto
          113 -19 20 -22 -86 vvcurveto
          -413 -75 vlineto
          -304 368 -97 116 20 37 121 19 rlinecurve
          110 -549 -110 vlineto
          140 -26 53 -33 175 -176 rrcurveto
          109 -113 -304 -584 -123 -232 -28 -36 -64 -28 rlinecurve
          -106 vlineto
          endchar
        </CharString>
        <CharString name="Zlinebelow">
          218 callsubr
          284 -386 rmoveto
          714 200 -714 hlineto
          endchar
        </CharString>
        <CharString name="a">
          1333 97 callsubr
          -98 callsubr
        </CharString>
        <CharString name="a.dnum">
          854 241 -14 rmoveto
          110 82 41 67 32 hvcurveto
          -65 18 86 -40 88 hhcurveto
          67 58 17 23 32 hvcurveto
          70 vlineto
          -2 -6 -8 0 -9 hhcurveto
          -28 -24 19 42 hvcurveto
          209 vlineto
          167 -120 71 -212 -208 -115 -80 -90 -60 48 -40 71 71 51 49 62 24 -8 22 -14 17 vhcurveto
          1 8 8 0 8 hhcurveto
          85 44 -39 -88 hvcurveto
          -31 vlineto
          -121 -24 rlineto
          -212 -41 -67 -72 -84 vvcurveto
          -83 68 -62 117 vhcurveto
          93 190 rmoveto
          47 29 32 76 16 vhcurveto
          17 4 rlineto
          -133 vlineto
          -16 -8 -23 -12 -30 hhcurveto
          -33 -28 20 42 hvcurveto
          endchar
        </CharString>
        <CharString name="a.numr">
          853 241 619 10 callgsubr
          -1 -9 hhcurveto
          -28 -24 19 51 callgsubr
          -61 48 -40 24 callgsubr
          -32 vlineto
          -121 -24 rlineto
          -212 -40 110 callgsubr
          47 29 32 32 callgsubr
        </CharString>
        <CharString name="a.sups">
          854 241 786 10 callgsubr
          0 -9 hhcurveto
          -28 -24 18 51 callgsubr
          -60 48 -41 24 callgsubr
          -31 vlineto
          -121 -24 rlineto
          -212 -41 110 callgsubr
          48 29 31 32 callgsubr
        </CharString>
        <CharString name="aacute">
          1333 558 20 callsubr
          -49 -1183 -100 callsubr
          -98 callsubr
        </CharString>
        <CharString name="abreve">
          1333 613 -6 callsubr
          -244 -1192 -100 callsubr
          -98 callsubr
        </CharString>
        <CharString name="abreveacute">
          1333 980 -39 callsubr
          367 -340 -35 callsubr
          -244 -1144 -100 callsubr
          -98 callsubr
        </CharString>
        <CharString name="abrevecyrillic">
          1333 614 16 callgsubr
          46 -25 hvcurveto
          -23 -42 -53 -13 -62 hhcurveto
          -62 -53 13 23 -43 hvcurveto
          48 24 33 53 61 vvcurveto
          90 -69 72 223 callsubr
          -245 -1184 -100 callsubr
          -98 callsubr
        </CharString>
        <CharString name="abrevedotbelow">
          1333 613 -6 callsubr
          -244 -1192 -100 callsubr
          45 callsubr
          184 -768 -66 callsubr
        </CharString>
        <CharString name="abrevegrave">
          1333 246 23 callsubr
          367 -669 -35 callsubr
          -244 -1144 -100 callsubr
          -98 callsubr
        </CharString>
        <CharString name="abrevehookabove">
          1333 601 1771 rmoveto
          -97 -81 callgsubr
          33 59 14 50 callgsubr
          89 62 105 vvcurveto
          102 -100 69 -145 vhcurveto
          12 -651 -35 callsubr
          -244 -1144 -100 callsubr
          -98 callsubr
        </CharString>
        <CharString name="abrevetilde">
          1333 758 51 callsubr
          -145 -368 -35 callsubr
          -244 -1144 -100 callsubr
          -98 callsubr
        </CharString>
        <CharString name="acaron">
          1333 870 -8 callsubr
          -89 callgsubr
          -641 -1609 -100 callsubr
          -98 callsubr
        </CharString>
        <CharString name="acircumflex">
          1333 356 -44 callsubr
          153 -1183 -100 callsubr
          -98 callsubr
        </CharString>
        <CharString name="acircumflexacute">
          1333 980 -39 callsubr
          1 -333 -51 callsubr
          122 -1258 -100 callsubr
          -98 callsubr
        </CharString>
        <CharString name="acircumflexdotbelow">
          1333 356 -44 callsubr
          153 -1183 -100 callsubr
          45 callsubr
          184 -768 -66 callsubr
        </CharString>
        <CharString name="acircumflexgrave">
          1333 246 23 callsubr
          1 -662 -51 callsubr
          122 -1258 -100 callsubr
          -98 callsubr
        </CharString>
        <CharString name="acircumflexhookabove">
          1333 893 -59 callgsubr
          51 hhcurveto
          86 40 -32 -40 -42 -41 -32 -96 -18 hvcurveto
          95 -62 rlineto
          169 30 88 179 callsubr
          122 -1258 -100 callsubr
          -98 callsubr
        </CharString>
        <CharString name="acircumflextilde">
          1333 758 51 callsubr
          -511 -361 -51 callsubr
          122 -1258 -100 callsubr
          -98 callsubr
        </CharString>
        <CharString name="acute">
          1024 457 20 callsubr
          endchar
        </CharString>
        <CharString name="acutecmb">
          0 -55 20 callsubr
          endchar
        </CharString>
        <CharString name="acutecmb.short">
          0 -37 1134 92 callgsubr
          endchar
        </CharString>
        <CharString name="acutedotaccentcmb">
          26 callgsubr
          367 -201 rmoveto
          223 vlineto
          -734 -226 rlineto
          -103 vlineto
          endchar
        </CharString>
        <CharString name="acutedotaccentcmb.short">
          0 1785 vmoveto
          82 66 54 74 75 -66 53 -82 -82 -66 -53 -75 -74 66 -54 82 hvcurveto
          376 -165 rmoveto
          190 vlineto
          -752 -192 rlineto
          -87 vlineto
          endchar
        </CharString>
        <CharString name="acyrillic">
          1333 97 callsubr
          -98 callsubr
        </CharString>
        <CharString name="adblgrave">
          1333 411 19 callsubr
          135 callsubr
          -525 -1183 -100 callsubr
          -98 callsubr
        </CharString>
        <CharString name="adieresis">
          1333 347 1175 rmoveto
          15 callsubr
          531 hmoveto
          15 callsubr
          -509 -1199 -100 callsubr
          -98 callsubr
        </CharString>
        <CharString name="adieresismacron">
          1333 246 1521 103 callsubr
          173 -562 -68 callsubr
          -438 -1165 -100 callsubr
          -98 callsubr
        </CharString>
        <CharString name="adotaccent">
          1333 613 10 callsubr
          -244 -1187 -100 callsubr
          -98 callsubr
        </CharString>
        <CharString name="adotbelow">
          1333 97 callsubr
          45 callsubr
          184 -768 -66 callsubr
        </CharString>
        <CharString name="adotmacron">
          1333 246 45 callgsubr
          -244 -1155 -100 callsubr
          -98 callsubr
        </CharString>
        <CharString name="ae">
          1795 383 -24 148 callsubr
        </CharString>
        <CharString name="aeacute">
          1795 887 -76 callsubr
          -82 callsubr
          -364 -1183 148 callsubr
        </CharString>
        <CharString name="aemacron">
          1795 558 -56 callsubr
          -175 -1482 148 callsubr
        </CharString>
        <CharString name="agrave">
          1333 670 -46 callsubr
          87 callsubr
          153 -1586 -100 callsubr
          -98 callsubr
        </CharString>
        <CharString name="ahookabove">
          1333 676 54 callsubr
          -307 -1611 -100 callsubr
          -98 callsubr
        </CharString>
        <CharString name="ainvertedbreve">
          1333 613 -98 callgsubr
          139 callsubr
          -244 -1599 -100 callsubr
          -98 callsubr
        </CharString>
        <CharString name="alphagreek">
          1452 486 -23 185 callsubr
        </CharString>
        <CharString name="alphatonosgreek">
          1452 752 143 callsubr
          -111 -1182 185 callsubr
        </CharString>
        <CharString name="amacron">
          1333 229 -56 callsubr
          140 -1482 -100 callsubr
          -98 callsubr
        </CharString>
        <CharString name="ampersand">
          1776 552 -27 rmoveto
          186 131 69 126 137 hvcurveto
          159 -168 rlineto
          579 106 hlineto
          -70 24 -64 44 -197 200 rrcurveto
          -107 113 118 130 147 163 48 32 103 16 rlinecurve
          110 vlineto
          -460 -1 rlineto
          -111 vlineto
          105 -16 20 -32 -84 -118 rrcurveto
          -69 -99 -288 303 rlineto
          207 58 130 106 140 vvcurveto
          174 -160 132 -291 -334 -195 -173 -213 -105 44 -91 95 -119 vhcurveto
          -243 -62 -136 -146 -195 vvcurveto
          -233 -1 200 -164 290 hhcurveto
          166 1232 rmoveto
          80 51 41 63 76 47 -71 -103 -4 vhcurveto
          -2 -77 -26 -73 -59 -52 rrcurveto
          -110 121 -36 63 71 vvcurveto
          -250 -666 rmoveto
          59 15 48 36 38 vhcurveto
          37 -41 41 -43 47 -48 287 -304 rcurveline
          -19 -43 -43 -7 -46 hhcurveto
          -186 -144 133 184 -1 hvcurveto
          endchar
        </CharString>
        <CharString name="anoteleiagreek">
          623 311 599 rmoveto
          -12 callsubr
          -103 -105 83 callsubr
        </CharString>
        <CharString name="aogonek">
          1332 97 callsubr
          -106 30 138 -65 141 2 3 0 2 hhcurveto
          -205 -98 -67 -94 -100 vvcurveto
          -115 103 -71 142 110 113 49 80 52 vhcurveto
          106 vlineto
          -12 -15 -27 -7 -29 hhcurveto
          -48 -41 27 59 81 61 73 96 79 hvcurveto
          105 vlineto
          -2 -10 -13 -1 -16 hhcurveto
          -49 -40 33 77 hvcurveto
          405 vlineto
          278 -197 120 -343 -336 -191 -133 -154 -100 79 -67 111 113 82 78 102 47 -20 43 -31 30 vhcurveto
          4 20 21 1 22 hhcurveto
          145 77 -67 -164 hvcurveto
          -67 vlineto
          -204 -42 rlineto
          -347 -69 -113 -121 -153 vvcurveto
          -147 116 -107 193 vhcurveto
          131 325 rmoveto
          92 52 61 133 31 vhcurveto
          39 9 rlineto
          -257 vlineto
          -37 -17 -42 -25 -54 hhcurveto
          -62 -49 42 84 hvcurveto
          endchar
        </CharString>
        <CharString name="approxequal">
          1349 939 875 rmoveto
          30 callgsubr
          19 callgsubr
          -543 vmoveto
          30 callgsubr
          19 callgsubr
          endchar
        </CharString>
        <CharString name="aring">
          1333 261 110 callsubr
          -153 -1395 -100 callsubr
          -98 callsubr
        </CharString>
        <CharString name="aringacute">
          1333 980 196 callsubr
          -259 -1243 -100 callsubr
          -98 callsubr
        </CharString>
        <CharString name="aringbelow">
          1333 97 callsubr
          45 callsubr
          -168 -586 -8 callgsubr
          261 hmoveto
          60 38 43 52 52 39 -42 -61 -62 -39 -42 -52 -52 -38 42 62 vhcurveto
          endchar
        </CharString>
        <CharString name="asciicircum">
          1349 610 1444 rmoveto
          -496 -605 159 -149 397 484 401 -485 165 149 -495 606 rlineto
          endchar
        </CharString>
        <CharString name="asciitilde">
          1349 939 583 rmoveto
          30 callgsubr
          162 50 66 83 callgsubr
          153 315 hvcurveto
          -208 hlineto
          -160 -50 -69 -87 vhcurveto
          endchar
        </CharString>
        <CharString name="asterisk">
          936 449 1078 rmoveto
          38 hlineto
          76 186 rlineto
          130 55 -78 80 -72 hhcurveto
          -75 -75 -79 -131 55 hvcurveto
          118 -189 rmoveto
          20 -35 201 30 rlineto
          139 17 31 107 -37 63 -37 65 -106 26 -85 -114 rrcurveto
          -192 -194 rmoveto
          20 35 -125 159 rlineto
          -85 114 -108 -29 -36 -62 -37 -66 30 -103 141 -18 rrcurveto
          220 -68 rmoveto
          -19 35 -201 -29 rlineto
          -139 -18 -31 -106 36 -63 38 -66 106 -26 85 114 rrcurveto
          191 194 rmoveto
          -20 -35 126 -159 rlineto
          84 -113 108 28 36 63 38 65 -30 103 -141 19 rrcurveto
          -224 -8 rmoveto
          -39 hlineto
          -75 -187 rlineto
          -130 -55 78 -80 71 hhcurveto
          76 75 79 131 -56 hvcurveto
          endchar
        </CharString>
        <CharString name="at">
          2149 550 404 rmoveto
          -228 98 -119 153 138 114 83 153 67 vhcurveto
          -1 -7 -1 -10 -6 vvcurveto
          -143 9 88 -105 217 hhcurveto
          407 242 316 376 458 -382 320 -563 -636 -431 -483 -563 -549 403 -325 481 185 186 51 77 94 hvcurveto
          -2 112 rlineto
          -77 -132 -143 -20 -162 hhcurveto
          -421 -325 273 459 495 377 407 526 495 286 -276 -385 -288 -164 -191 -174 -89 -17 47 103 22 hvcurveto
          138 641 -247 0 -135 -116 rlineto
          88 -36 -83 53 -118 hhcurveto
          -279 -185 -297 -324 hvcurveto
          393 10 rmoveto
          170 81 301 120 47 30 -39 -83 -14 vhcurveto
          -69 -324 rlineto
          -99 -22 -49 -60 -55 hhcurveto
          -46 -23 42 92 hvcurveto
          endchar
        </CharString>
        <CharString name="atilde">
          1333 765 -50 callsubr
          13 callsubr
          67 callsubr
          -396 -1204 -100 callsubr
          -98 callsubr
        </CharString>
        <CharString name="austral">
          1561 199 330 rmoveto
          -61 -171 -27 -29 -113 -20 rrcurveto
          -110 480 110 vlineto
          -141 23 -24 35 54 162 rrcurveto
          16 49 484 0 17 -51 54 -161 -24 -34 -142 -23 rlinecurve
          -110 793 110 vlineto
          -114 19 -29 31 -60 166 -19 53 rcurveline
          222 85 -252 hlineto
          -68 188 rlineto
          320 85 -350 hlineto
          -255 707 -361 0 -254 -707 rlineto
          -347 -85 317 hlineto
          -68 -188 rlineto
          -249 -85 219 hlineto
          286 358 rmoveto
          121 364 123 -364 rlineto
          -335 -273 rmoveto
          62 188 301 0 63 -188 rlineto
          endchar
        </CharString>
        <CharString name="austral.tnum">
          1358 -2 456 rmoveto
          -85 171 vlineto
          -13 -43 -51 -171 -20 -32 -86 -15 rlinecurve
          -110 403 110 vlineto
          -115 17 -16 32 45 166 rrcurveto
          13 46 376 0 13 -46 44 -167 -16 -28 -121 -20 rlinecurve
          -110 733 110 vlineto
          -88 15 -19 34 -50 167 -14 45 rcurveline
          173 85 -198 hlineto
          -56 188 rlineto
          254 84 -279 hlineto
          -214 716 -377 0 -214 -716 rlineto
          -278 -84 252 hlineto
          -56 -188 rlineto
          233 272 rmoveto
          91 333 90 -333 rlineto
          -256 -272 rmoveto
          52 188 227 0 51 -188 rlineto
          endchar
        </CharString>
        <CharString name="b">
          -57 callgsubr
          endchar
        </CharString>
        <CharString name="backslash">
          839 535 -280 rmoveto
          267 hlineto
          -498 1860 rlineto
          -267 hlineto
          endchar
        </CharString>
        <CharString name="baht">
          1581 42 30 rmoveto
          733 -220 85 220 hlineto
          358 4 300 144 265 vvcurveto
          211 -177 128 -271 12 vhcurveto
          212 14 191 92 196 vvcurveto
          205 -221 110 -392 3 vhcurveto
          217 -85 -217 -733 -110 vlineto
          58 callgsubr
          602 1147 rmoveto
          95 -2 rlineto
          12 12 -1 -1 12 hvcurveto
          -467 vlineto
          -4 -4 0 -4 hhcurveto
          -119 -1 rlineto
          361 238 rmoveto
          -125 -51 -72 -94 -27 vhcurveto
          436 vlineto
          95 -34 50 -75 -103 vvcurveto
          -361 -364 rmoveto
          119 -1 rlineto
          8 -4 0 -1 8 hvcurveto
          -526 vlineto
          -1 -12 -12 -1 -12 hhcurveto
          -95 -2 rlineto
          395 275 rmoveto
          -130 -63 -88 -116 -37 vhcurveto
          498 vlineto
          117 -33 62 -90 -120 vvcurveto
          endchar
        </CharString>
        <CharString name="baht.tnum">
          1358 19 44 rmoveto
          650 -234 85 234 hlineto
          319 7 263 138 251 39 callgsubr
          196 -194 107 -347 5 vhcurveto
          233 -85 -233 -650 -110 vlineto
          59 callgsubr
          551 1119 rmoveto
          67 -1 11 -1 11 0 10 -1 rlinecurve
          -454 vlineto
          -4 -4 0 -4 hhcurveto
          -87 -1 rlineto
          299 235 rmoveto
          -116 -40 -70 -75 -31 vhcurveto
          414 vlineto
          75 -34 40 -69 -94 vvcurveto
          -299 -361 rmoveto
          87 -1 rlineto
          4 4 0 4 hhcurveto
          -514 vlineto
          -10 -1 -11 0 -11 -1 -67 -1 rcurveline
          331 262 rmoveto
          -120 -53 -82 -94 -37 vhcurveto
          478 vlineto
          96 -34 51 -85 -120 vvcurveto
          endchar
        </CharString>
        <CharString name="bar">
          839 286 -280 rmoveto
          267 1860 -267 hlineto
          endchar
        </CharString>
        <CharString name="bdotaccent">
          1394 364 1569 34 callgsubr
          96 -84 120 hvcurveto
          967 -1036 191 callsubr
          endchar
        </CharString>
        <CharString name="bdotbelow">
          -57 callgsubr
          -181 -966 28 callsubr
          24 callsubr
        </CharString>
        <CharString name="becyrillic">
          1392 1328 508 rmoveto
          298 -218 200 -367 -240 -185 -107 -165 -85 vhcurveto
          -4 27 -2 28 30 vvcurveto
          164 78 129 358 24 vhcurveto
          129 10 362 27 95 112 15 272 rlinecurve
          -112 hlineto
          -20 -48 -57 -10 -241 -25 -258 -28 -164 -67 -116 -103 rrcurveto
          -147 -130 -83 -206 -320 vvcurveto
          -385 208 -259 416 348 290 202 330 vhcurveto
          -471 -13 rmoveto
          -281 -65 -95 -92 -103 -56 142 238 243 57 127 109 95 55 -131 -243 vhcurveto
          endchar
        </CharString>
        <CharString name="betagreek">
          1371 111 -460 rmoveto
          466 hlineto
          -6 212 -5 184 -3 160 rrcurveto
          -68 53 100 -51 129 hhcurveto
          239 215 158 287 279 -164 184 -231 30 hvcurveto
          175 14 150 99 171 vvcurveto
          194 -171 150 -353 -358 -234 -180 -422 vhcurveto
          433 149 rmoveto
          197 34 104 111 92 46 -82 -144 -146 -65 -76 -118 -9 vhcurveto
          1 -296 rlineto
          144 -8 91 -90 -167 vvcurveto
          -156 -85 -64 -92 -59 -58 25 42 -28 vhcurveto
          -12 478 -2 240 152 vvcurveto
          endchar
        </CharString>
        <CharString name="bitcoin">
          1557 42 30 rmoveto
          567 -219 86 219 127 hlineto
          22 22 1 1 22 hvcurveto
          -221 85 228 vlineto
          294 34 229 139 231 vvcurveto
          211 -178 128 -271 12 vhcurveto
          213 14 190 92 196 vvcurveto
          180 -170 107 -307 25 vhcurveto
          223 -85 -218 vlineto
          1 -22 -22 0 -22 hhcurveto
          -127 217 -86 -217 -567 -110 hlineto
          58 callgsubr
          940 913 rmoveto
          -163 -88 -73 -154 -1 vhcurveto
          -96 -1 0 472 72 -2 rlineto
          173 -5 93 -86 -141 vvcurveto
          34 -621 rmoveto
          -170 -108 -98 -192 -5 vhcurveto
          -72 -2 0 532 96 -1 rlineto
          179 -2 97 -105 -149 vvcurveto
          endchar
        </CharString>
        <CharString name="bitcoin.tnum">
          1358 19 44 rmoveto
          491 -233 85 233 135 hlineto
          18 17 0 1 17 hvcurveto
          -234 85 241 vlineto
          266 34 203 134 220 39 callgsubr
          174 -153 104 -275 24 vhcurveto
          237 -85 -232 vlineto
          1 -17 -17 0 -18 hhcurveto
          -135 231 -85 -231 -491 -110 hlineto
          59 callgsubr
          844 896 rmoveto
          -159 -78 -74 -135 -1 vhcurveto
          -73 -1 0 458 53 -1 rlineto
          148 -5 85 -82 -135 vvcurveto
          31 -621 rmoveto
          -159 -97 -92 -167 -6 vhcurveto
          -53 -1 0 518 73 -1 rlineto
          157 -2 87 -106 -151 vvcurveto
          endchar
        </CharString>
        <CharString name="blinebelow">
          -57 callgsubr
          -538 -884 -49 callsubr
        </CharString>
        <CharString name="braceleft">
          839 621 1052 rmoveto
          153 vlineto
          144 4 120 170 vhcurveto
          111 -45 vlineto
          -373 -162 -132 -262 hvcurveto
          -286 vlineto
          -154 -60 -42 -125 vhcurveto
          -109 vlineto
          125 60 -43 -156 hvcurveto
          -282 vlineto
          -262 162 -132 373 vhcurveto
          45 111 hlineto
          -170 -4 120 144 hvcurveto
          151 vlineto
          250 -144 116 -256 37 vhcurveto
          256 37 144 116 250 vvcurveto
          endchar
        </CharString>
        <CharString name="braceright">
          839 218 1052 rmoveto
          -250 144 -116 256 -37 vhcurveto
          -256 -37 -144 -116 -250 vvcurveto
          -151 vlineto
          -144 -4 -120 -170 vhcurveto
          -111 45 vlineto
          373 162 132 262 hvcurveto
          282 vlineto
          156 60 43 125 vhcurveto
          109 vlineto
          -125 -60 42 154 hvcurveto
          286 vlineto
          262 -162 132 -373 vhcurveto
          -45 -111 hlineto
          170 4 -120 -144 hvcurveto
          endchar
        </CharString>
        <CharString name="bracketleft">
          839 181 -283 rmoveto
          622 3 0 111 -234 6 0 1626 234 6 0 111 -622 3 rlineto
          endchar
        </CharString>
        <CharString name="bracketright">
          839 657 1583 rmoveto
          -621 -3 0 -111 234 -6 0 -1626 -234 -6 0 -111 621 -3 rlineto
          endchar
        </CharString>
        <CharString name="breve">
          1024 512 -6 callsubr
          endchar
        </CharString>
        <CharString name="breveacutecmb">
          -85 callgsubr
          367 -340 -35 callsubr
          endchar
        </CharString>
        <CharString name="breveacutecmb.short">
          0 376 -40 callsubr
          376 -279 -10 callsubr
          127 callsubr
        </CharString>
        <CharString name="brevebelowcmb">
          0 -473 vmoveto
          -22 callgsubr
          -2 -23 -24 vvcurveto
          -165 124 -145 237 vhcurveto
          endchar
        </CharString>
        <CharString name="brevecmb">
          0 1168 vmoveto
          80 callgsubr
          endchar
        </CharString>
        <CharString name="brevecmb.short">
          0 1150 vmoveto
          237 124 138 157 24 -2 22 -3 17 hvcurveto
          -126 -1 hlineto
          -85 -97 -57 -133 -131 -99 58 84 vhcurveto
          1 -126 vlineto
          -3 -17 -2 -22 -24 vvcurveto
          -157 124 -138 237 vhcurveto
          endchar
        </CharString>
        <CharString name="brevecyrilliccmb">
          0 1 16 callgsubr
          47 -25 hvcurveto
          -23 -43 -53 -13 -62 hhcurveto
          -62 -53 13 23 -42 hvcurveto
          47 24 33 53 61 vvcurveto
          90 -69 72 223 callsubr
          endchar
        </CharString>
        <CharString name="brevecyrilliccmb.short">
          0 1543 vmoveto
          -9 callgsubr
          endchar
        </CharString>
        <CharString name="brevegravecmb">
          0 -367 23 callsubr
          367 -669 -35 callsubr
          endchar
        </CharString>
        <CharString name="brevegravecmb.short">
          0 -376 -14 callsubr
          376 -558 -10 callsubr
          127 callsubr
        </CharString>
        <CharString name="brevehookabovecmb">
          0 -12 1771 rmoveto
          -97 -81 callgsubr
          33 59 14 50 callgsubr
          89 62 105 vvcurveto
          102 -100 69 -145 vhcurveto
          12 -651 -35 callsubr
          endchar
        </CharString>
        <CharString name="brevehookabovecmb.short">
          0 -12 2077 rmoveto
          -99 -91 -34 -48 -56 hvcurveto
          -66 vlineto
          14 34 61 13 52 hhcurveto
          87 42 -14 callgsubr
          127 callsubr
        </CharString>
        <CharString name="brevetildecmb">
          0 145 51 callsubr
          -145 -368 -35 callsubr
          endchar
        </CharString>
        <CharString name="brevetildecmb.short">
          0 149 1839 rmoveto
          145 84 85 141 -2 hvcurveto
          -131 hlineto
          -45 -26 -21 -52 -30 -33 7 11 -38 vhcurveto
          -45 12 rlineto
          16 -54 -55 13 -60 hhcurveto
          -145 -84 -84 -142 2 hvcurveto
          131 hlineto
          45 26 22 52 30 104 callgsubr
          -149 -309 -10 callsubr
          127 callsubr
        </CharString>
        <CharString name="brokenbar">
          839 286 789 rmoveto
          267 791 -267 hlineto
          -1860 vmoveto
          267 791 -267 hlineto
          endchar
        </CharString>
        <CharString name="bullet">
          864 432 -25 callgsubr
        </CharString>
        <CharString name="c">
          1176 658 -24 17 callsubr
        </CharString>
        <CharString name="cacute">
          1176 612 -76 callsubr
          -82 callsubr
          186 -1183 17 callsubr
        </CharString>
        <CharString name="caret">
          623 258 hmoveto
          -322 -371 128 -125 244 282 247 -283 132 125 -319 372 rlineto
          endchar
        </CharString>
        <CharString name="caron">
          1024 769 -8 callsubr
          -89 callgsubr
          endchar
        </CharString>
        <CharString name="caroncmb">
          0 257 -8 callsubr
          -89 callgsubr
          endchar
        </CharString>
        <CharString name="caroncmb.short">
          0 260 1465 -61 callgsubr
          -324 320 0 218 324 rlineto
          endchar
        </CharString>
        <CharString name="carondotaccentcmb">
          26 callgsubr
          366 6 rmoveto
          -366 -99 -366 99 0 -108 -41 callgsubr
          endchar
        </CharString>
        <CharString name="carondotaccentcmb.short">
          0 1809 vmoveto
          61 callgsubr
          384 2 rmoveto
          -384 -84 -384 84 0 -91 347 -173 75 0 347 173 rlineto
          endchar
        </CharString>
        <CharString name="caronslovak">
          1024 450 1151 -51 callgsubr
        </CharString>
        <CharString name="caronslovakcmb">
          0 132 1151 -51 callgsubr
        </CharString>
        <CharString name="ccaron">
          1176 924 -8 callsubr
          -74 callgsubr
          -406 -1609 17 callsubr
        </CharString>
        <CharString name="ccedilla">
          1176 607 -483 rmoveto
          26 callsubr
          39 callsubr
          60 57 181 8 155 63 83 100 rlinecurve
          154 callsubr
          219 callsubr
        </CharString>
        <CharString name="ccedillaacute">
          1176 612 -76 callsubr
          -82 callsubr
          135 -1642 rmoveto
          26 callsubr
          39 callsubr
          60 57 181 8 155 63 83 100 rlinecurve
          154 callsubr
          219 callsubr
        </CharString>
        <CharString name="ccircumflex">
          1176 409 57 callsubr
          389 -1183 17 callsubr
        </CharString>
        <CharString name="cdotaccent">
          1176 667 1163 34 callgsubr
          96 -84 120 hvcurveto
          -9 -1187 17 callsubr
        </CharString>
        <CharString name="cedi">
          1374 825 -188 rmoveto
          85 202 hlineto
          157 8 152 37 81 53 10 377 rcurveline
          -106 hlineto
          -53 -231 -102 -91 -139 -6 rrcurveto
          1123 vlineto
          143 -6 100 -101 49 -220 rrcurveto
          105 hlineto
          -9 378 -89 51 -133 37 -166 8 rlinecurve
          200 -85 -199 vlineto
          -445 -7 -299 -280 -430 vvcurveto
          -418 304 -277 440 -8 vhcurveto
          -272 726 rmoveto
          307 99 193 173 39 vhcurveto
          -1108 vlineto
          -176 45 -96 220 304 vvcurveto
          endchar
        </CharString>
        <CharString name="cedi.tnum">
          1358 811 -188 rmoveto
          85 202 hlineto
          151 8 146 36 81 51 8 381 rcurveline
          -105 hlineto
          -52 -230 -97 -93 -132 -7 rrcurveto
          1124 vlineto
          133 -8 96 -102 48 -218 rrcurveto
          106 hlineto
          -9 381 -87 49 -128 36 -159 9 rlinecurve
          200 -85 -199 vlineto
          -435 -7 -292 -281 -429 vvcurveto
          -422 296 -274 431 -7 vhcurveto
          -257 726 rmoveto
          306 93 191 164 41 vhcurveto
          -1107 vlineto
          -167 45 -90 217 307 vvcurveto
          endchar
        </CharString>
        <CharString name="cedilla">
          1024 476 174 callsubr
          -4 0 -3 hhcurveto
          82 80 rlineto
          59 -83 vlineto
          -181 -198 1 -82 rlineto
          -93 callgsubr
          -51 -48 14 16 -28 -30 callgsubr
        </CharString>
        <CharString name="cedillacmb">
          0 -36 174 callsubr
          -2 0 -3 hhcurveto
          80 76 rlineto
          60 -83 vlineto
          -181 -195 1 -82 rlineto
          3 8 19 3 16 hhcurveto
          61 37 -22 -41 -41 -40 -21 -60 -51 -48 14 16 -28 -30 callgsubr
        </CharString>
        <CharString name="cent">
          1218 726 64 callgsubr
          -61 -114 -23 -98 hhcurveto
          -55 -53 10 20 -47 hvcurveto
          680 vlineto
          5 23 24 3 25 hhcurveto
          17 16 -2 -2 15 hvcurveto
          -33 -31 -22 -44 -51 vvcurveto
          -101 76 -83 107 101 85 74 109 164 -157 106 -277 10 vhcurveto
          179 -85 -179 vlineto
          -325 -16 -252 -207 -329 vvcurveto
          -336 260 -195 317 -3 vhcurveto
          -179 vlineto
          -127 791 rmoveto
          130 47 97 80 53 vhcurveto
          -590 vlineto
          -78 65 -49 105 140 vvcurveto
          endchar
        </CharString>
        <CharString name="cent.1">
          1164 709 65 callgsubr
          -49 -91 -23 -80 hhcurveto
          -193 -160 135 258 201 98 123 142 6 6 0 -1 6 hvcurveto
          -40 -34 -25 -52 -58 vvcurveto
          -104 83 -79 110 103 87 78 118 165 -142 105 -253 11 vhcurveto
          179 -85 -179 vlineto
          -315 108 callgsubr
          309 -10 vhcurveto
          -180 vlineto
          endchar
        </CharString>
        <CharString name="cent.1.tnum">
          1358 800 65 callgsubr
          -50 -91 -23 -79 hhcurveto
          -194 -160 135 258 201 98 123 143 6 6 0 -1 6 hvcurveto
          -40 -34 -25 -52 -58 vvcurveto
          -104 82 -79 110 104 87 78 118 165 -143 105 -252 11 vhcurveto
          179 -85 -179 vlineto
          -316 108 callgsubr
          310 -10 vhcurveto
          -180 vlineto
          endchar
        </CharString>
        <CharString name="cent.tnum">
          1358 789 64 callgsubr
          -60 -114 -23 -98 hhcurveto
          -55 -53 10 21 -48 hvcurveto
          679 vlineto
          5 23 24 3 26 hhcurveto
          16 16 -2 -2 16 hvcurveto
          -34 -31 -21 -44 -50 vvcurveto
          -102 76 -83 107 101 85 74 109 164 -158 106 -277 10 vhcurveto
          179 -84 -179 vlineto
          -325 -16 -253 -207 -329 vvcurveto
          -336 261 -195 317 -3 vhcurveto
          -179 vlineto
          -128 791 rmoveto
          130 48 98 80 52 vhcurveto
          -590 vlineto
          -78 65 -50 104 141 vvcurveto
          endchar
        </CharString>
        <CharString name="checyrillic">
          1519 165 695 rmoveto
          -227 165 -103 209 135 128 39 45 62 vhcurveto
          -228 vlineto
          -74 -24 -19 -127 -18 vhcurveto
          -110 741 110 vlineto
          -111 16 -23 20 75 vvcurveto
          596 vlineto
          75 23 20 111 16 vhcurveto
          111 -672 -111 vlineto
          69 -12 13 -18 -70 vvcurveto
          -261 vlineto
          -13 -23 -42 -9 -46 hhcurveto
          -89 -48 43 104 hvcurveto
          136 vlineto
          70 13 20 69 10 vhcurveto
          111 -661 -111 vlineto
          107 -15 21 -21 -75 vvcurveto
          endchar
        </CharString>
        <CharString name="chigreek">
          1288 408 -460 rmoveto
          70 602 97 -215 rlineto
          -313 137 101 -96 191 hhcurveto
          112 109 48 70 58 hvcurveto
          104 vlineto
          -6 -11 -24 -6 -21 hhcurveto
          -71 -48 39 265 -118 hvcurveto
          -125 278 115 233 157 271 159 224 rlinecurve
          -418 hlineto
          -77 -586 -91 201 rlineto
          309 -134 -103 95 -188 hhcurveto
          -113 -109 -48 -70 -58 hvcurveto
          -105 vlineto
          7 12 24 5 21 hhcurveto
          70 49 -38 -265 117 hvcurveto
          117 -261 -128 -269 -156 -272 -141 -201 rlinecurve
          endchar
        </CharString>
        <CharString name="circumflex">
          1024 255 -44 callsubr
          endchar
        </CharString>
        <CharString name="circumflexacutecmb">
          -85 callgsubr
          1 -333 -51 callsubr
          endchar
        </CharString>
        <CharString name="circumflexacutecmb.short">
          0 376 129 callsubr
          endchar
        </CharString>
        <CharString name="circumflexbelowcmb">
          0 -239 -472 177 callsubr
          -223 -374 rlineto
          endchar
        </CharString>
        <CharString name="circumflexcmb">
          0 -257 -44 callsubr
          endchar
        </CharString>
        <CharString name="circumflexcmb.short">
          0 -219 1134 rmoveto
          240 138 240 -138 138 0 -217 323 -62 callsubr
          endchar
        </CharString>
        <CharString name="circumflexgravecmb">
          0 -367 23 callsubr
          1 -662 -51 callsubr
          endchar
        </CharString>
        <CharString name="circumflexgravecmb.short">
          0 -376 118 callsubr
          endchar
        </CharString>
        <CharString name="circumflexhookabovecmb">
          0 280 -59 callgsubr
          50 callgsubr
          88 179 callsubr
          endchar
        </CharString>
        <CharString name="circumflexhookabovecmb.short">
          0 316 128 callsubr
          49 hhcurveto
          85 -71 callgsubr
          endchar
        </CharString>
        <CharString name="circumflextildecmb">
          0 145 51 callsubr
          -511 -361 -51 callsubr
          endchar
        </CharString>
        <CharString name="circumflextildecmb.short">
          0 149 170 callsubr
          -33 7 11 -38 vhcurveto
          -45 12 rlineto
          16 -54 -55 13 -60 hhcurveto
          -145 -63 callgsubr
          32 -7 -11 39 vhcurveto
          44 -13 rlineto
          -15 55 55 -13 60 hhcurveto
          -524 -324 124 callsubr
          endchar
        </CharString>
        <CharString name="colon">
          623 311 550 rmoveto
          -12 callsubr
          -103 -105 -127 -127 103 -105 128 hvcurveto
          -579 vmoveto
          -12 callsubr
          -103 -105 83 callsubr
        </CharString>
        <CharString name="colon.uc">
          623 311 780 rmoveto
          129 103 105 127 126 -103 105 -129 -128 -103 -105 -126 -127 103 -105 128 hvcurveto
          -579 vmoveto
          129 103 105 31 callgsubr
          endchar
        </CharString>
        <CharString name="coloncurrency">
          1373 464 -189 rmoveto
          86 hlineto
          51 231 59 -16 62 -9 67 -4 rlinecurve
          -45 -202 85 0 45 201 rlineto
          169 5 170 38 87 57 10 378 rcurveline
          -106 hlineto
          -54 -234 -103 -91 -141 -5 rrcurveto
          220 994 32 -50 25 -65 18 -83 rlinecurve
          106 hlineto
          -9 379 -34 19 -40 17 -47 15 rlinecurve
          54 245 -85 0 -49 -224 -57 12 -63 9 -69 3 rlinecurve
          45 200 -85 0 -45 -199 rlineto
          -444 -7 -298 -280 -430 vvcurveto
          -313 170 -234 270 -101 vhcurveto
          373 1218 rmoveto
          62 55 -17 -37 47 hvcurveto
          -235 -1062 rlineto
          -68 18 -55 44 -43 64 219 989 rcurveline
          1 6 6 0 6 hhcurveto
          -341 -547 rmoveto
          284 84 186 149 57 vhcurveto
          -187 -847 rlineto
          -30 89 -16 109 122 vvcurveto
          endchar
        </CharString>
</ttFont>
